<svg width="445" height="12" viewBox="0 0 445 12" fill="none" xmlns="http://www.w3.org/2000/svg">
<path d="M0 1C11.6919 1 11.6919 10.9135 23.3911 10.9135C35.0902 10.9135 35.083 1 46.7821 1C58.4812 1 58.4741 10.9135 70.1732 10.9135C81.8723 10.9135 81.8723 1 93.5642 1C105.256 1 105.256 10.9135 116.955 10.9135C128.654 10.9135 128.654 1 140.346 1C152.038 1 152.038 10.9135 163.737 10.9135C175.436 10.9135 175.436 1 187.128 1C198.82 1 198.828 10.9135 210.519 10.9135C222.211 10.9135 222.219 1 233.911 1C245.602 1 245.61 10.9135 257.302 10.9135C268.994 10.9135 268.994 1 280.693 1C292.392 1 292.385 10.9135 304.084 10.9135C315.783 10.9135 315.783 1 327.475 1C339.167 1 339.174 10.9135 350.866 10.9135C362.558 10.9135 362.565 1 374.264 1C385.963 1 385.963 10.9135 397.655 10.9135C409.347 10.9135 409.354 1 421.053 1C432.752 1 432.752 10.9135 444.452 10.9135" stroke="url(#paint0_linear_39_5931)" stroke-width="2" stroke-miterlimit="10"/>
<defs>
<linearGradient id="paint0_linear_39_5931" x1="0" y1="5.95672" x2="444.459" y2="5.95672" gradientUnits="userSpaceOnUse">
<stop stop-color="#67AC51"/>
<stop offset="0.11" stop-color="#55AC69"/>
<stop offset="0.34" stop-color="#2AAEA7"/>
<stop offset="0.54" stop-color="#00B0E4"/>
<stop offset="0.89" stop-color="#26617A"/>
<stop offset="1" stop-color="#334756"/>
</linearGradient>
</defs>
</svg>
