<svg width="102" height="102" viewBox="0 0 102 102" fill="none" xmlns="http://www.w3.org/2000/svg">
<path d="M28.1039 66.4106H29.751V74.2004H28.1039V71.1508H25.2215V74.2004H23.5743V66.4106H25.2215V69.6265H28.1039V66.4106Z" fill="#204356"/>
<path d="M35.8606 73.5431C35.3336 74.0701 34.6584 74.3336 33.8348 74.3336C33.0112 74.3336 32.336 74.0701 31.8099 73.5431C31.2829 73.0161 31.0194 72.338 31.0194 71.5069C31.0194 70.6758 31.2829 69.9977 31.8099 69.4707C32.3369 68.9437 33.0122 68.6802 33.8348 68.6802C34.6574 68.6802 35.3336 68.9437 35.8606 69.4707C36.3876 69.9977 36.6511 70.6767 36.6511 71.5069C36.6511 72.3371 36.3876 73.0171 35.8606 73.5431ZM32.9451 72.5533C33.1746 72.8131 33.4721 72.9425 33.8357 72.9425C34.1994 72.9425 34.4959 72.8131 34.7264 72.5533C34.9559 72.2936 35.0711 71.9451 35.0711 71.5069C35.0711 71.0687 34.9577 70.7221 34.732 70.4661C34.5054 70.2102 34.2069 70.0817 33.8357 70.0817C33.4646 70.0817 33.1661 70.2102 32.9404 70.4661C32.7137 70.7221 32.6014 71.0687 32.6014 71.5069C32.6014 71.9451 32.7166 72.2936 32.9461 72.5533H32.9451Z" fill="#204356"/>
<path d="M39.7215 74.3335C39.0311 74.3335 38.4824 74.1663 38.0744 73.833C37.6664 73.4996 37.4548 73.0462 37.4397 72.4758H38.931C38.9385 72.6836 39.0179 72.8451 39.1699 72.9603C39.322 73.0755 39.5241 73.1331 39.7763 73.1331C39.9991 73.1331 40.1748 73.0868 40.3051 72.9943C40.4345 72.9017 40.4997 72.7808 40.4997 72.6326C40.4997 72.3955 40.2513 72.2283 39.7545 72.132L39.0981 71.9988C37.9998 71.7911 37.451 71.2678 37.451 70.4301C37.451 69.9182 37.6513 69.4989 38.0517 69.1731C38.4521 68.8463 39.0046 68.6838 39.7101 68.6838C40.3779 68.6838 40.903 68.834 41.2845 69.1343C41.6661 69.4347 41.872 69.8634 41.9022 70.4197H40.4109C40.3958 70.2563 40.3221 70.1251 40.188 70.025C40.0549 69.9248 39.8688 69.8748 39.6318 69.8748C39.4164 69.8748 39.2483 69.9192 39.1255 70.008C39.0028 70.0967 38.9423 70.2082 38.9423 70.3413C38.9423 70.5567 39.1983 70.7087 39.7101 70.7975L40.3665 70.9307C41.4498 71.1385 41.991 71.6617 41.991 72.4994C41.991 73.0406 41.7889 73.4826 41.3846 73.8235C40.9804 74.1644 40.426 74.3354 39.7205 74.3354L39.7215 74.3335Z" fill="#204356"/>
<path d="M46.1201 68.6802C46.8029 68.6802 47.3734 68.9418 47.8343 69.465C48.2942 69.9882 48.5247 70.6692 48.5247 71.5069C48.5247 72.3446 48.2942 73.0256 47.8343 73.5488C47.3743 74.072 46.8029 74.3336 46.1201 74.3336C45.7792 74.3336 45.4713 74.2647 45.1964 74.1277C44.9216 73.9908 44.7176 73.8104 44.5844 73.5885H44.5514V76.6928H42.993V68.8143H44.4173L44.473 69.4707H44.5174C44.6505 69.2336 44.8621 69.0419 45.152 68.8974C45.441 68.7529 45.764 68.6802 46.1201 68.6802ZM44.846 72.5477C45.0727 72.8036 45.3636 72.9321 45.7197 72.9321C46.0757 72.9321 46.3685 72.8046 46.5989 72.5477C46.8284 72.2917 46.9437 71.9451 46.9437 71.5069C46.9437 71.0687 46.8284 70.7221 46.5989 70.4661C46.3685 70.2102 46.0757 70.0817 45.7197 70.0817C45.3636 70.0817 45.0727 70.2102 44.846 70.4661C44.6194 70.7221 44.507 71.0687 44.507 71.5069C44.507 71.9451 44.6203 72.2917 44.846 72.5477Z" fill="#204356"/>
<path d="M51.1115 67.8065C50.9227 67.9887 50.6903 68.0794 50.4164 68.0794C50.1425 68.0794 49.9102 67.9887 49.7213 67.8065C49.5324 67.6251 49.438 67.3966 49.438 67.1217C49.438 66.8469 49.5324 66.6193 49.7213 66.437C49.9102 66.2557 50.1425 66.1641 50.4164 66.1641C50.6903 66.1641 50.9227 66.2547 51.1115 66.437C51.3004 66.6193 51.3949 66.8469 51.3949 67.1217C51.3949 67.3966 51.3004 67.6242 51.1115 67.8065ZM49.6373 74.2003V68.8142H51.1956V74.2003H49.6373Z" fill="#204356"/>
<path d="M55.3568 72.9536C55.5277 72.9536 55.6864 72.9423 55.8356 72.9206V74.2334C55.5683 74.3004 55.2831 74.3335 54.979 74.3335C54.2744 74.3335 53.7512 74.1625 53.4103 73.8216C53.0693 73.4806 52.8984 72.9423 52.8984 72.2075V70.1826H52.0635V68.8141H52.8984V67.5344H54.4567V68.8141H55.8035V70.1826H54.4567V72.0857C54.4567 72.4125 54.5238 72.6382 54.6569 72.7648C54.7901 72.8913 55.0243 72.9536 55.3577 72.9536H55.3568Z" fill="#204356"/>
<path d="M59.2629 68.6801C60.027 68.6801 60.6059 68.8709 60.9988 69.2534C61.3917 69.6359 61.5891 70.1903 61.5891 70.9175V74.2004H60.1866L60.1196 73.5327H60.0865C59.7456 74.0673 59.1855 74.3336 58.4063 74.3336C57.8718 74.3336 57.4383 74.1891 57.1039 73.9001C56.7696 73.6111 56.6034 73.2324 56.6034 72.7649C56.6034 71.8374 57.2673 71.2774 58.5952 71.0847L60.0865 70.8618V70.8391C60.0865 70.2602 59.7937 69.9712 59.2072 69.9712C58.6207 69.9712 58.3544 70.2045 58.3166 70.672H56.7809C56.8102 70.0562 57.0444 69.5708 57.4817 69.2138C57.919 68.8577 58.5131 68.6792 59.262 68.6792L59.2629 68.6801ZM58.8729 73.1426C59.2365 73.1426 59.5293 73.035 59.7522 72.8196C59.9751 72.6043 60.0856 72.3191 60.0856 71.963V71.8743L59.0174 72.0301C58.4611 72.1047 58.1825 72.3087 58.1825 72.6421C58.1825 72.9755 58.412 73.1426 58.8729 73.1426Z" fill="#204356"/>
<path d="M62.9463 74.2004V66.4106H64.5046V74.2004H62.9463Z" fill="#204356"/>
<path d="M71.0695 71.3511C71.0695 71.5286 71.0544 71.7071 71.0251 71.8856H67.1415C67.201 72.2643 67.3436 72.5496 67.5703 72.7422C67.797 72.9349 68.0879 73.0312 68.4439 73.0312C68.9851 73.0312 69.3449 72.8348 69.5234 72.4419H71.0034C70.8626 73.036 70.5642 73.4987 70.1071 73.8331C69.6509 74.1674 69.0927 74.3336 68.4326 74.3336C67.5864 74.3336 66.9064 74.0758 66.3907 73.5601C65.875 73.0445 65.6172 72.3711 65.6172 71.54C65.6172 70.7088 65.8788 70.0062 66.402 69.4754C66.9252 68.9446 67.5986 68.6802 68.4222 68.6802C69.2013 68.6802 69.837 68.9229 70.3309 69.4093C70.8239 69.8957 71.0714 70.5426 71.0714 71.3511H71.0695ZM68.4212 69.9599C67.7762 69.9599 67.3672 70.2716 67.1972 70.8949H69.5121C69.4082 70.2716 69.0446 69.9599 68.4212 69.9599Z" fill="#204356"/>
<path d="M74.1191 74.3335C73.4287 74.3335 72.8799 74.1663 72.4719 73.833C72.0639 73.4996 71.8524 73.0462 71.8373 72.4758H73.3286C73.3361 72.6836 73.4154 72.8451 73.5675 72.9603C73.7196 73.0755 73.9217 73.1331 74.1738 73.1331C74.3967 73.1331 74.5724 73.0868 74.7027 72.9943C74.8321 72.9017 74.8973 72.7808 74.8973 72.6326C74.8973 72.3955 74.6489 72.2283 74.1521 72.132L73.4957 71.9988C72.3973 71.7911 71.8486 71.2678 71.8486 70.4301C71.8486 69.9182 72.0488 69.4989 72.4493 69.1731C72.8497 68.8463 73.4022 68.6838 74.1077 68.6838C74.7754 68.6838 75.3006 68.834 75.6821 69.1343C76.0637 69.4347 76.2696 69.8634 76.2998 70.4197H74.8085C74.7934 70.2563 74.7197 70.1251 74.5856 70.025C74.4524 69.9248 74.2664 69.8748 74.0293 69.8748C73.814 69.8748 73.6459 69.9192 73.5231 70.008C73.4003 70.0967 73.3399 70.2082 73.3399 70.3413C73.3399 70.5567 73.5958 70.7087 74.1077 70.7975L74.7641 70.9307C75.8474 71.1385 76.3886 71.6617 76.3886 72.4994C76.3886 73.0406 76.1864 73.4826 75.7822 73.8235C75.378 74.1644 74.8236 74.3354 74.1181 74.3354L74.1191 74.3335Z" fill="#204356"/>
<path d="M15.3454 85.5583C14.655 85.5583 14.1063 85.3912 13.6983 85.0578C13.2903 84.7234 13.0787 84.271 13.0636 83.6997H14.5549C14.5624 83.9074 14.6418 84.0689 14.7938 84.1842C14.9459 84.2994 15.148 84.357 15.4002 84.357C15.623 84.357 15.7987 84.3107 15.929 84.2182C16.0584 84.1256 16.1236 84.0047 16.1236 83.8564C16.1236 83.6194 15.8752 83.4522 15.3775 83.3559L14.7211 83.2227C13.6227 83.0149 13.074 82.4917 13.074 81.654C13.074 81.1421 13.2742 80.7228 13.6747 80.3969C14.0751 80.0702 14.6276 79.9077 15.3331 79.9077C16.0008 79.9077 16.5259 80.0579 16.9075 80.3582C17.289 80.6585 17.4949 81.0873 17.5252 81.6436H16.0339C16.0188 81.4802 15.9451 81.3489 15.811 81.2488C15.6778 81.1487 15.4918 81.0987 15.2547 81.0987C15.0394 81.0987 14.8713 81.143 14.7485 81.2318C14.6257 81.3206 14.5653 81.432 14.5653 81.5662C14.5653 81.7815 14.8212 81.9335 15.3331 82.0223L15.9895 82.1555C17.0728 82.3633 17.6139 82.8865 17.6139 83.7242C17.6139 84.2663 17.4118 84.7074 17.0076 85.0483C16.6034 85.3893 16.049 85.5602 15.3435 85.5602L15.3454 85.5583Z" fill="#204356"/>
<path d="M20.0921 79.032C19.9032 79.2143 19.6709 79.305 19.397 79.305C19.1231 79.305 18.8908 79.2143 18.7019 79.032C18.513 78.8507 18.4186 78.6221 18.4186 78.3473C18.4186 78.0725 18.513 77.8449 18.7019 77.6626C18.8908 77.4813 19.1231 77.3896 19.397 77.3896C19.6709 77.3896 19.9032 77.4803 20.0921 77.6626C20.281 77.8449 20.3755 78.0725 20.3755 78.3473C20.3755 78.6221 20.281 78.8498 20.0921 79.032ZM18.6169 85.425V80.0388H20.1752V85.425H18.6169Z" fill="#204356"/>
<path d="M24.7596 79.9048C25.3235 79.9048 25.7683 80.0918 26.0951 80.4667C26.4218 80.8417 26.5843 81.3772 26.5843 82.0751V85.4251H25.026V82.5096C25.026 81.7304 24.7332 81.3413 24.1467 81.3413C23.835 81.3413 23.5885 81.4433 23.4062 81.6473C23.224 81.8513 23.1333 82.1497 23.1333 82.5436V85.426H21.575V80.0398H22.9992L23.0549 80.6962H23.0993C23.2627 80.4516 23.4922 80.259 23.7897 80.1173C24.0862 79.9766 24.4092 79.9057 24.7577 79.9057L24.7596 79.9048Z" fill="#204356"/>
<path d="M30.6246 85.425V77.6353H32.2717V85.425H30.6246Z" fill="#204356"/>
<path d="M37.0118 79.9048C37.5756 79.9048 38.0205 80.0918 38.3473 80.4667C38.674 80.8417 38.8365 81.3772 38.8365 82.0751V85.4251H37.2781V82.5096C37.2781 81.7304 36.9854 81.3413 36.3989 81.3413C36.0872 81.3413 35.8407 81.4433 35.6584 81.6473C35.4761 81.8513 35.3855 82.1497 35.3855 82.5436V85.426H33.8271V80.0398H35.2514L35.3071 80.6962H35.3515C35.5149 80.4516 35.7444 80.259 36.0419 80.1173C36.3384 79.9766 36.6614 79.9057 37.0099 79.9057L37.0118 79.9048Z" fill="#204356"/>
<path d="M42.91 78.8924C42.6134 78.8924 42.3962 78.9557 42.2592 79.0813C42.1214 79.2078 42.0534 79.4081 42.0534 79.6819V80.038H43.3444V81.3848H42.0534V85.4242H40.495V81.3848H39.6271V80.038H40.495V79.6819C40.495 78.9623 40.6716 78.4192 41.0239 78.0518C41.3762 77.6844 41.8824 77.5012 42.5426 77.5012C42.8391 77.5012 43.1102 77.5381 43.3548 77.6127V78.9368C43.1763 78.9075 43.028 78.8924 42.91 78.8924Z" fill="#204356"/>
<path d="M49.2528 82.5757C49.2528 82.7532 49.2377 82.9317 49.2085 83.1102H45.3249C45.3844 83.489 45.527 83.7742 45.7537 83.9668C45.9803 84.1595 46.2712 84.2558 46.6273 84.2558C47.1685 84.2558 47.5283 84.0594 47.7068 83.6665H49.1867C49.046 84.2606 48.7476 84.7233 48.2914 85.0577C47.8352 85.3911 47.2771 85.5582 46.6169 85.5582C45.7707 85.5582 45.0907 85.3004 44.575 84.7847C44.0593 84.2691 43.8015 83.5957 43.8015 82.7646C43.8015 81.9335 44.0631 81.2308 44.5863 80.7C45.1096 80.1692 45.783 79.9048 46.6065 79.9048C47.3857 79.9048 48.0213 80.1475 48.5152 80.6339C49.0082 81.1203 49.2557 81.7672 49.2557 82.5757H49.2528ZM46.6046 81.1845C45.9596 81.1845 45.5516 81.4962 45.3806 82.1195H47.6955C47.5916 81.4962 47.228 81.1845 46.6046 81.1845Z" fill="#204356"/>
<path d="M52.8474 85.5582C52.0163 85.5582 51.3429 85.2966 50.8272 84.7734C50.3115 84.2502 50.0537 83.5702 50.0537 82.7315C50.0537 81.8928 50.3134 81.2128 50.8329 80.6896C51.3523 80.1664 52.0304 79.9048 52.8691 79.9048C53.618 79.9048 54.2282 80.1107 54.6994 80.5225C55.1707 80.9342 55.4323 81.5037 55.4843 82.231H53.8929C53.8485 81.942 53.7333 81.7153 53.5482 81.5519C53.363 81.3885 53.1288 81.3073 52.8474 81.3073C52.4989 81.3073 52.2089 81.4376 51.9794 81.6964C51.749 81.9561 51.6347 82.3008 51.6347 82.7315C51.6347 83.1622 51.748 83.5088 51.9738 83.7723C52.2004 84.0358 52.4875 84.1671 52.836 84.1671C53.1175 84.1671 53.3593 84.0821 53.5595 83.9111C53.7597 83.7402 53.8787 83.5145 53.9155 83.2321H55.5069C55.4474 83.9517 55.1764 84.5193 54.6947 84.9349C54.2121 85.3505 53.5963 85.5582 52.8474 85.5582Z" fill="#204356"/>
<path d="M59.0127 85.5582C58.1816 85.5582 57.5082 85.2966 56.9925 84.7734C56.4768 84.2502 56.219 83.5702 56.219 82.7315C56.219 81.8928 56.4787 81.2128 56.9982 80.6896C57.5176 80.1664 58.1957 79.9048 59.0344 79.9048C59.7833 79.9048 60.3934 80.1107 60.8647 80.5225C61.336 80.9342 61.5976 81.5037 61.6495 82.231H60.0582C60.0138 81.942 59.8985 81.7153 59.7134 81.5519C59.5283 81.3885 59.2941 81.3073 59.0127 81.3073C58.6642 81.3073 58.3742 81.4376 58.1447 81.6964C57.9143 81.9561 57.8 82.3008 57.8 82.7315C57.8 83.1622 57.9133 83.5088 58.1391 83.7723C58.3657 84.0358 58.6528 84.1671 59.0013 84.1671C59.2828 84.1671 59.5245 84.0821 59.7248 83.9111C59.925 83.7402 60.044 83.5145 60.0808 83.2321H61.6722C61.6127 83.9517 61.3417 84.5193 60.86 84.9349C60.3774 85.3505 59.7616 85.5582 59.0127 85.5582Z" fill="#204356"/>
<path d="M64.1477 79.032C63.9588 79.2143 63.7265 79.305 63.4526 79.305C63.1787 79.305 62.9463 79.2143 62.7575 79.032C62.5686 78.8507 62.4741 78.6221 62.4741 78.3473C62.4741 78.0725 62.5686 77.8449 62.7575 77.6626C62.9463 77.4813 63.1787 77.3896 63.4526 77.3896C63.7265 77.3896 63.9588 77.4803 64.1477 77.6626C64.3366 77.8449 64.431 78.0725 64.431 78.3473C64.431 78.6221 64.3366 78.8498 64.1477 79.032ZM62.6734 85.425V80.0388H64.2317V85.425H62.6734Z" fill="#204356"/>
<path d="M70.1855 84.7687C69.6585 85.2957 68.9832 85.5592 68.1596 85.5592C67.3361 85.5592 66.6608 85.2957 66.1347 84.7687C65.6077 84.2417 65.3442 83.5636 65.3442 82.7325C65.3442 81.9014 65.6077 81.2233 66.1347 80.6963C66.6617 80.1693 67.337 79.9058 68.1596 79.9058C68.9822 79.9058 69.6585 80.1693 70.1855 80.6963C70.7125 81.2233 70.976 81.9023 70.976 82.7325C70.976 83.5626 70.7125 84.2426 70.1855 84.7687ZM67.269 83.778C67.4985 84.0377 67.796 84.1671 68.1596 84.1671C68.5232 84.1671 68.8198 84.0377 69.0502 83.778C69.2797 83.5183 69.395 83.1698 69.395 82.7315C69.395 82.2933 69.2816 81.9467 69.0559 81.6908C68.8292 81.4348 68.5308 81.3064 68.1596 81.3064C67.7885 81.3064 67.49 81.4348 67.2634 81.6908C67.0367 81.9467 66.9243 82.2933 66.9243 82.7315C66.9243 83.1698 67.0395 83.5183 67.269 83.778Z" fill="#204356"/>
<path d="M75.2704 79.9048C75.8342 79.9048 76.279 80.0918 76.6058 80.4667C76.9326 80.8417 77.095 81.3772 77.095 82.0751V85.4251H75.5367V82.5096C75.5367 81.7304 75.2439 81.3413 74.6574 81.3413C74.3457 81.3413 74.0993 81.4433 73.917 81.6473C73.7347 81.8513 73.644 82.1497 73.644 82.5436V85.426H72.0857V80.0398H73.5099L73.5656 80.6962H73.61C73.7734 80.4516 74.0029 80.259 74.3004 80.1173C74.597 79.9766 74.92 79.9057 75.2685 79.9057L75.2704 79.9048Z" fill="#204356"/>
<path d="M83.6165 82.5757C83.6165 82.7532 83.6014 82.9317 83.5721 83.1102H79.6885C79.748 83.489 79.8906 83.7742 80.1173 83.9668C80.344 84.1595 80.6349 84.2558 80.9909 84.2558C81.5321 84.2558 81.8919 84.0594 82.0704 83.6665H83.5504C83.4096 84.2606 83.1112 84.7233 82.6541 85.0577C82.1979 85.3911 81.6397 85.5582 80.9796 85.5582C80.1334 85.5582 79.4534 85.3004 78.9377 84.7847C78.422 84.2691 78.1642 83.5957 78.1642 82.7646C78.1642 81.9335 78.4258 81.2308 78.949 80.7C79.4722 80.1692 80.1456 79.9048 80.9692 79.9048C81.7484 79.9048 82.384 80.1475 82.8779 80.6339C83.3709 81.1203 83.6184 81.7672 83.6184 82.5757H83.6165ZM80.9682 81.1845C80.3232 81.1845 79.9142 81.4962 79.7442 82.1195H82.0591C81.9552 81.4962 81.5916 81.1845 80.9682 81.1845Z" fill="#204356"/>
<path d="M86.6661 85.5583C85.9757 85.5583 85.4269 85.3912 85.0189 85.0578C84.6109 84.7234 84.3994 84.271 84.3843 83.6997H85.8756C85.8831 83.9074 85.9624 84.0689 86.1145 84.1842C86.2666 84.2994 86.4687 84.357 86.7208 84.357C86.9437 84.357 87.1194 84.3107 87.2497 84.2182C87.3791 84.1256 87.4443 84.0047 87.4443 83.8564C87.4443 83.6194 87.1959 83.4522 86.6991 83.3559L86.0427 83.2227C84.9443 83.0149 84.3956 82.4917 84.3956 81.654C84.3956 81.1421 84.5958 80.7228 84.9963 80.3969C85.3967 80.0702 85.9492 79.9077 86.6547 79.9077C87.3224 79.9077 87.8476 80.0579 88.2291 80.3582C88.6116 80.6585 88.8166 81.0873 88.8468 81.6436H87.3555C87.3404 81.4802 87.2667 81.3489 87.1326 81.2488C86.9994 81.1487 86.8134 81.0987 86.5763 81.0987C86.361 81.0987 86.1929 81.143 86.0701 81.2318C85.9473 81.3206 85.8869 81.432 85.8869 81.5662C85.8869 81.7815 86.1428 81.9335 86.6547 82.0223L87.3111 82.1555C88.3944 82.3633 88.9356 82.8865 88.9356 83.7242C88.9356 84.2663 88.7334 84.7074 88.3292 85.0483C87.925 85.3893 87.3706 85.5602 86.6651 85.5602L86.6661 85.5583Z" fill="#204356"/>
<path d="M57.1766 48.6965C48.6842 48.6965 41.7746 41.7879 41.7746 33.2964V31.9109H29.375V46.614H43.8628V61.1008H58.5659V48.6956H57.1766V48.6965Z" fill="#204356"/>
<path d="M60.758 35.6301C59.7578 35.9125 58.8946 36.1571 58.3676 36.3866C55.5078 37.6332 54.7881 39.3162 54.5171 39.95C54.399 40.2248 54.2215 40.6403 53.7058 40.7811C53.6151 40.8056 53.5226 40.8179 53.431 40.8179C53.1778 40.8179 52.9295 40.7263 52.7349 40.5535C52.4705 40.3183 52.1569 37.0873 52.1361 36.6642C51.8915 31.8466 52.2655 27.2462 58.5668 23.9114V17.4221H43.8637V31.9099L43.8448 32.6834V33.2954C43.8448 40.647 49.826 46.6272 57.1785 46.6272L58.5678 46.614H73.0556V31.9108H69.5016C66.758 33.9329 63.2683 34.9208 60.7608 35.6301" fill="#29BAE2"/>
<path d="M62.4448 23.3919C53.4083 26.5293 52.9125 31.2704 53.1826 36.6122C54.4066 30.8993 58.2769 27.7637 65.4226 25.9315C57.5016 28.6184 54.2187 34.4258 53.43 39.7695C53.5859 39.727 54.0336 37.1326 57.9492 35.426C60.3434 34.3824 67.5174 33.47 70.9249 29.1095C73.9689 25.2146 71.3839 17.9953 71.3679 17.915C71.2753 18.0765 71.298 20.3196 62.4448 23.3928" fill="#25A64B"/>
</svg>
