<svg width="165" height="152" viewBox="0 0 165 152" fill="none" xmlns="http://www.w3.org/2000/svg">
<path d="M24.8875 72.7757C24.8875 71.0936 25.2022 69.4085 25.8347 67.734C26.4672 66.0596 27.39 64.5654 28.6 63.2485C29.81 61.9346 31.2874 60.8652 33.0275 60.0478C34.7677 59.2304 36.7446 58.8195 38.9583 58.8195C41.5907 58.8195 43.8778 59.3893 45.815 60.526C47.7522 61.6565 49.1929 63.1339 50.1463 64.9489L45.1627 68.4261C44.8479 67.6897 44.4431 67.0786 43.9588 66.5882C43.4683 66.1008 42.9336 65.7067 42.3531 65.4042C41.774 65.0986 41.1828 64.8893 40.5778 64.7747C39.9713 64.6556 39.3785 64.596 38.7995 64.596C37.5589 64.596 36.4818 64.8389 35.5575 65.3461C34.6363 65.8518 33.8708 66.492 33.2628 67.2803C32.6608 68.0732 32.2132 68.9685 31.9245 69.9692C31.6342 70.9699 31.4906 71.9843 31.4906 73.0125C31.4906 74.1202 31.6602 75.1835 32.0024 76.2132C32.3431 77.2399 32.8365 78.1443 33.4828 78.9372C34.1321 79.7347 34.9052 80.3581 35.8111 80.8164C36.7247 81.2793 37.7438 81.5039 38.8758 81.5039C39.4564 81.5039 40.0568 81.4321 40.674 81.2931C41.2928 81.1464 41.8871 80.9218 42.4524 80.6193C43.0207 80.3199 43.5402 79.9211 44.0168 79.4322C44.4904 78.9403 44.8708 78.3445 45.1611 77.6356L50.4564 80.7614C50.0363 81.7865 49.4114 82.7078 48.5772 83.5282C47.7522 84.341 46.7958 85.0224 45.7111 85.58C44.6325 86.1315 43.4897 86.5532 42.2736 86.8374C41.0606 87.1353 39.8796 87.2804 38.72 87.2804C36.6881 87.2804 34.8272 86.8618 33.1283 86.0353C31.4264 85.2057 29.9643 84.1011 28.7406 82.7368C27.5122 81.3649 26.5665 79.8096 25.8913 78.0695C25.2175 76.3293 24.886 74.5632 24.886 72.7742" fill="#184376"/>
<path d="M64.1346 70.9943V87.0451H57.6508V58.9844H62.7108L75.7901 75.46V58.9844H82.2755V87.0451H77.0581L64.1346 70.9943Z" fill="#184376"/>
<path d="M108.439 67.2008C108.362 67.0939 108.083 66.9014 107.614 66.6096C107.132 66.3208 106.541 66.0198 105.831 65.7036C105.119 65.3797 104.343 65.1139 103.499 64.8679C102.656 64.628 101.811 64.5135 100.971 64.5135C98.6517 64.5135 97.4951 65.2911 97.4951 66.8433C97.4951 67.3215 97.6189 67.7172 97.8664 68.0304C98.1169 68.3482 98.4851 68.6339 98.9756 68.8844C99.4599 69.135 100.076 69.3657 100.812 69.5735C101.548 69.7812 102.405 70.0196 103.382 70.2854C104.723 70.6551 105.941 71.0554 107.015 71.4908C108.096 71.9201 109.013 72.464 109.766 73.1103C110.516 73.7519 111.094 74.5357 111.503 75.4585C111.914 76.3873 112.116 77.4873 112.116 78.7829C112.116 80.3657 111.82 81.7025 111.227 82.7933C110.634 83.8841 109.85 84.7718 108.876 85.444C107.898 86.1086 106.782 86.6021 105.516 86.9061C104.252 87.2055 102.946 87.3553 101.603 87.3553C100.577 87.3553 99.521 87.2804 98.4408 87.123C97.3622 86.9596 96.3081 86.7289 95.2799 86.4264C94.2501 86.1254 93.2525 85.7648 92.293 85.3401C91.3336 84.9185 90.446 84.428 89.624 83.8811L92.4733 78.2253C92.5787 78.3628 92.924 78.6057 93.4985 78.9846C94.076 79.3436 94.7956 79.7148 95.6511 80.0876C96.5082 80.4589 97.4661 80.7828 98.5203 81.0715C99.5714 81.3648 100.638 81.5023 101.716 81.5023C104.013 81.5023 105.154 80.8103 105.154 79.4154C105.154 78.8853 104.987 78.4498 104.642 78.1076C104.298 77.7669 103.829 77.4553 103.223 77.1772C102.618 76.9068 101.898 76.6471 101.072 76.4057C100.239 76.1704 99.3346 75.9107 98.3599 75.6158C97.0689 75.2293 95.9506 74.7969 95.0003 74.3417C94.0531 73.8787 93.2662 73.3425 92.649 72.7375C92.0318 72.1279 91.5704 71.4328 91.2694 70.6414C90.9624 69.85 90.8081 68.9303 90.8081 67.873C90.8081 66.4003 91.0846 65.0925 91.6422 63.9619C92.1968 62.8268 92.9454 61.8673 93.8926 61.0958C94.8444 60.3151 95.9444 59.7285 97.1957 59.3389C98.4485 58.9401 99.77 58.7461 101.168 58.7461C102.144 58.7461 103.104 58.8347 104.051 59.018C105.003 59.2029 105.91 59.4412 106.781 59.7285C107.652 60.0172 108.46 60.3487 109.212 60.72C109.965 61.0912 110.652 61.4518 111.285 61.823L108.439 67.1962V67.2008Z" fill="#184376"/>
<path d="M119.86 87.0451V58.9844H131.838C133.182 58.9844 134.412 59.261 135.532 59.811C136.654 60.3701 137.611 61.0943 138.417 61.9835C139.22 62.8833 139.856 63.8917 140.313 65.0222C140.779 66.1589 141.005 67.3017 141.005 68.4658C141.005 69.7003 140.786 70.8858 140.358 72.024C139.92 73.1622 139.31 74.169 138.536 75.0704C137.76 75.9626 136.819 76.673 135.709 77.2062C134.602 77.7287 133.376 77.9946 132.037 77.9946H126.346V87.0451H119.86ZM126.346 72.3418H131.639C132.406 72.3418 133.063 72.0133 133.618 71.3518C134.169 70.6918 134.444 69.7262 134.444 68.4658C134.444 67.8074 134.362 67.2405 134.191 66.7715C134.018 66.2949 133.789 65.9007 133.5 65.5829C133.208 65.2682 132.878 65.036 132.513 64.8878C132.144 64.7487 131.769 64.6724 131.403 64.6724H126.346V72.3418Z" fill="#184376"/>
<path d="M24.8875 93.4068C24.8875 93.1272 24.9379 92.8461 25.0327 92.5742C25.132 92.2946 25.2725 92.0486 25.465 91.8271C25.6575 91.6071 25.8836 91.4299 26.1602 91.2939C26.4352 91.1579 26.7483 91.0938 27.0967 91.0938C27.5092 91.0938 27.8667 91.1869 28.1615 91.3718C28.4579 91.5613 28.6749 91.8011 28.8246 92.1082L28.354 92.4061C28.2868 92.2549 28.2074 92.1296 28.1081 92.0318C28.0088 91.9325 27.9033 91.85 27.7857 91.7889C27.6696 91.7278 27.5504 91.6865 27.4282 91.6606C27.3106 91.6361 27.1868 91.6178 27.0707 91.6178C26.811 91.6178 26.5833 91.6789 26.3847 91.7858C26.1892 91.8851 26.0211 92.0272 25.8852 92.2029C25.7492 92.3725 25.6499 92.5665 25.5857 92.7758C25.517 92.9943 25.4833 93.2113 25.4833 93.4282C25.4833 93.6757 25.5215 93.9094 25.6056 94.1218C25.685 94.3479 25.7981 94.5419 25.9417 94.71C26.0853 94.8842 26.2533 95.011 26.4504 95.1133C26.646 95.2203 26.8614 95.2692 27.0921 95.2692C27.2128 95.2692 27.3381 95.2524 27.4679 95.2218C27.5917 95.1867 27.7185 95.1424 27.8377 95.0736C27.9553 94.9987 28.0592 94.9208 28.1661 94.8139C28.2685 94.7176 28.3525 94.5924 28.4167 94.4518L28.9056 94.7192C28.8322 94.8903 28.7345 95.0461 28.597 95.1821C28.4656 95.3089 28.3143 95.425 28.1478 95.5151C27.9797 95.6114 27.801 95.6801 27.61 95.7275C27.4267 95.7764 27.2433 95.7917 27.0646 95.7917C26.7499 95.7917 26.4535 95.7275 26.1892 95.5869C25.9218 95.4479 25.6942 95.2707 25.5017 95.0369C25.3046 94.8154 25.1518 94.5664 25.0464 94.2807C24.9395 93.9965 24.889 93.7063 24.889 93.4068" fill="#184376"/>
<path d="M30.9772 95.8207C30.7252 95.8207 30.4838 95.7749 30.276 95.6786C30.0636 95.5854 29.8833 95.454 29.7321 95.2951C29.5839 95.1332 29.4647 94.9437 29.3807 94.736C29.2982 94.5144 29.257 94.2929 29.257 94.0607C29.257 93.8147 29.2982 93.5932 29.3853 93.3778C29.4693 93.1669 29.5885 92.9805 29.7367 92.8155C29.8864 92.6597 30.0667 92.5253 30.279 92.4305C30.4899 92.3312 30.7252 92.2839 30.9772 92.2839C31.2293 92.2839 31.4646 92.3312 31.6754 92.4305C31.8893 92.5268 32.0696 92.6597 32.2178 92.8155C32.3721 92.9805 32.4897 93.1669 32.5722 93.3778C32.6593 93.5947 32.699 93.8147 32.699 94.0607C32.699 94.2929 32.6593 94.5144 32.5753 94.736C32.4943 94.9437 32.3797 95.1347 32.2254 95.2951C32.0711 95.454 31.8924 95.5854 31.6815 95.6786C31.4692 95.7749 31.2324 95.8207 30.9757 95.8207M29.8467 94.0668C29.8467 94.2486 29.8742 94.4044 29.9322 94.5572C29.9918 94.7115 30.0713 94.846 30.1752 94.9621C30.279 95.0736 30.3997 95.1622 30.5342 95.2264C30.6702 95.2951 30.8183 95.3303 30.9772 95.3303C31.1361 95.3303 31.2797 95.2967 31.4172 95.2264C31.5547 95.1622 31.6754 95.0736 31.7793 94.959C31.8863 94.8444 31.9657 94.7054 32.0268 94.5526C32.0833 94.4014 32.1108 94.2333 32.1108 94.0515C32.1108 93.8697 32.0833 93.7108 32.0268 93.5626C31.9657 93.4083 31.8863 93.2708 31.7793 93.1578C31.6754 93.0386 31.5532 92.95 31.4172 92.8812C31.2797 92.8171 31.1361 92.7865 30.9772 92.7865C30.8183 92.7865 30.6702 92.8171 30.5342 92.8873C30.3997 92.9546 30.279 93.0462 30.1752 93.1639C30.0728 93.28 29.9933 93.4068 29.9322 93.5657C29.8727 93.7169 29.8467 93.888 29.8467 94.0668Z" fill="#184376"/>
<path d="M36.2924 95.7565H35.7195V93.8498C35.7195 93.4817 35.6645 93.2173 35.5545 93.0493C35.4429 92.8858 35.2764 92.8049 35.0472 92.8049C34.9281 92.8049 34.812 92.8262 34.6943 92.8675C34.5767 92.9118 34.4652 92.9805 34.3597 93.0646C34.2543 93.141 34.1642 93.2296 34.0847 93.3335C34.0083 93.4557 33.9457 93.5642 33.9075 93.7032V95.7565H33.3331V92.3511H33.854V93.0829C33.9915 92.8385 34.1856 92.649 34.4422 92.5039C34.6943 92.3572 34.9739 92.2839 35.2749 92.2839C35.4674 92.2839 35.637 92.3205 35.7607 92.3924C35.8952 92.4703 35.996 92.5665 36.077 92.6918C36.1549 92.8262 36.2083 92.9729 36.242 93.1471C36.2786 93.3228 36.2893 93.5137 36.2893 93.7154V95.7565H36.2924Z" fill="#184376"/>
<path d="M38.3182 95.8268C38.0447 95.8268 37.7728 95.7779 37.5085 95.7C37.2426 95.6129 37.0181 95.483 36.824 95.3303L37.0685 94.9391C37.2717 95.095 37.4688 95.2111 37.672 95.286C37.8721 95.3578 38.0814 95.3975 38.3045 95.3975C38.552 95.3975 38.7475 95.3486 38.8972 95.2554C39.0454 95.15 39.1157 95.014 39.1157 94.8398C39.1157 94.7558 39.0958 94.684 39.0576 94.6275C39.0179 94.5679 38.9583 94.5144 38.882 94.4732C38.801 94.4319 38.6986 94.3953 38.5795 94.354C38.4557 94.3204 38.3151 94.2868 38.1563 94.2471C37.9515 94.1936 37.7728 94.1462 37.6261 94.0958C37.4764 94.0424 37.3526 93.9904 37.2579 93.9278C37.1601 93.856 37.0929 93.7811 37.0501 93.6894C37.0058 93.5962 36.9829 93.4847 36.9829 93.3487C36.9829 93.1776 37.0196 93.0248 37.0838 92.8904C37.151 92.7636 37.2472 92.6521 37.3633 92.5589C37.481 92.4733 37.62 92.4046 37.7743 92.3603C37.9317 92.3205 38.1058 92.2854 38.2876 92.2854C38.5443 92.2854 38.7842 92.3297 39.0103 92.4198C39.2288 92.4962 39.4151 92.6093 39.5725 92.7422L39.3113 93.0875C39.1661 92.9637 39.0042 92.8675 38.827 92.8033C38.6482 92.7361 38.4649 92.704 38.28 92.704C38.0722 92.704 37.8904 92.7544 37.7453 92.8385C37.5986 92.924 37.5283 93.0707 37.5283 93.2678C37.5283 93.3457 37.5436 93.4068 37.5665 93.4603C37.5971 93.5137 37.6429 93.5611 37.7086 93.6039C37.7743 93.6375 37.8583 93.6757 37.9622 93.7047C38.0615 93.7383 38.1822 93.7689 38.3258 93.7979C38.5565 93.8529 38.7536 93.9079 38.9217 93.9629C39.0897 94.0164 39.2272 94.0867 39.3403 94.1539C39.4488 94.2303 39.5358 94.3173 39.5878 94.4182C39.6397 94.5129 39.6688 94.6397 39.6688 94.7787C39.6688 95.1026 39.5481 95.3547 39.299 95.5365C39.0561 95.7244 38.7338 95.8253 38.3151 95.8253" fill="#184376"/>
<path d="M41.7954 95.8207C41.5403 95.8207 41.3035 95.7779 41.0896 95.6786C40.8727 95.5854 40.6954 95.4571 40.5411 95.2982C40.3868 95.1424 40.2707 94.9483 40.1867 94.7344C40.0965 94.5129 40.0568 94.2914 40.0568 94.0485C40.0568 93.8055 40.0965 93.5901 40.1867 93.3717C40.2707 93.1623 40.3868 92.9683 40.5442 92.814C40.697 92.649 40.8803 92.5253 41.0942 92.426C41.3111 92.3312 41.5449 92.2839 41.8015 92.2839C42.0582 92.2839 42.2904 92.3312 42.5028 92.4305C42.7136 92.5268 42.8924 92.6536 43.0436 92.814C43.1933 92.9683 43.3049 93.1562 43.3843 93.3717C43.4668 93.5794 43.5081 93.7964 43.5081 94.0225C43.5081 94.0698 43.5035 94.1187 43.5035 94.1539C43.5035 94.1951 43.4959 94.2242 43.4913 94.2501H40.6634C40.6756 94.4167 40.7138 94.5755 40.7825 94.7085C40.8497 94.8444 40.9322 94.9682 41.0331 95.0721C41.1446 95.1729 41.2607 95.2523 41.389 95.3043C41.5204 95.3669 41.664 95.3929 41.8122 95.3929C41.9161 95.3929 42.02 95.3792 42.1193 95.3455C42.2217 95.3226 42.3149 95.2829 42.4035 95.2355C42.4875 95.1867 42.567 95.1332 42.6311 95.0599C42.6984 94.9835 42.7472 94.9086 42.7839 94.82L43.2835 94.9605C43.2224 95.0843 43.146 95.2019 43.0513 95.3028C42.952 95.4051 42.8404 95.4998 42.7106 95.5778C42.5807 95.6526 42.4402 95.7107 42.2843 95.7535C42.13 95.7947 41.9604 95.8176 41.7939 95.8176M42.9657 93.8208C42.952 93.665 42.9138 93.5046 42.845 93.3732C42.7763 93.2326 42.6877 93.118 42.5868 93.0249C42.4829 92.9255 42.3684 92.8553 42.2339 92.8033C42.0964 92.7514 41.9528 92.7239 41.8015 92.7239C41.6503 92.7239 41.5036 92.7514 41.3677 92.8033C41.2363 92.8553 41.1171 92.9255 41.0147 93.0249C40.9124 93.1287 40.8283 93.2479 40.7657 93.3778C40.7 93.5137 40.6634 93.665 40.6496 93.8208H42.9642H42.9657Z" fill="#184376"/>
<path d="M43.6456 96.9726C43.4897 96.9726 43.3477 96.9528 43.2147 96.9054C43.0833 96.8657 42.9642 96.7924 42.8557 96.7022L43.1246 96.3111C43.1872 96.3692 43.256 96.4089 43.3415 96.4303C43.421 96.4517 43.5035 96.4654 43.5768 96.4654C43.6456 96.4654 43.7143 96.4532 43.7815 96.4226C43.8442 96.3936 43.9022 96.357 43.9572 96.3081C44.0092 96.2592 44.052 96.1965 44.081 96.1232C44.107 96.0606 44.1253 95.9842 44.1253 95.9124V92.3526H44.6997V95.8727C44.6997 96.0254 44.6677 96.1721 44.6111 96.3111C44.5515 96.4517 44.4736 96.5632 44.3774 96.664C44.2765 96.7603 44.165 96.8367 44.0413 96.8993C43.9114 96.9421 43.78 96.9742 43.6425 96.9742M44.1283 90.9883H44.7028V91.7064H44.1283V90.9883Z" fill="#184376"/>
<path d="M47.0525 95.8207C46.8004 95.8207 46.5621 95.7749 46.3543 95.6786C46.1435 95.5854 45.9601 95.454 45.8135 95.2951C45.6592 95.1332 45.543 94.9437 45.459 94.736C45.375 94.5144 45.3368 94.2929 45.3368 94.0607C45.3368 93.8147 45.375 93.5932 45.4667 93.3778C45.5461 93.1669 45.6637 92.9805 45.815 92.8155C45.9647 92.6597 46.145 92.5253 46.3604 92.4305C46.5712 92.3312 46.8019 92.2839 47.0525 92.2839C47.303 92.2839 47.5414 92.3312 47.7537 92.4305C47.9661 92.5268 48.1464 92.6597 48.2992 92.8155C48.4474 92.9805 48.5665 93.1669 48.6536 93.3778C48.7376 93.5947 48.7804 93.8147 48.7804 94.0607C48.7804 94.2929 48.7376 94.5144 48.6551 94.736C48.5726 94.9437 48.455 95.1347 48.3037 95.2951C48.151 95.454 47.9692 95.5854 47.7553 95.6786C47.5444 95.7749 47.3122 95.8207 47.054 95.8207M45.925 94.0668C45.925 94.2486 45.9525 94.4044 46.0105 94.5572C46.0686 94.7115 46.1496 94.846 46.2519 94.9621C46.3528 95.0736 46.4765 95.1622 46.6125 95.2264C46.7485 95.2951 46.8967 95.3303 47.0525 95.3303C47.2083 95.3303 47.3565 95.2967 47.4955 95.2264C47.6285 95.1622 47.7537 95.0736 47.8576 94.959C47.96 94.8444 48.044 94.7054 48.1021 94.5526C48.1586 94.4014 48.1876 94.2333 48.1876 94.0515C48.1876 93.8697 48.1586 93.7108 48.1021 93.5626C48.0425 93.4083 47.96 93.2708 47.8576 93.1578C47.7537 93.0386 47.63 92.95 47.4955 92.8812C47.355 92.8171 47.2129 92.7865 47.0525 92.7865C46.8921 92.7865 46.7485 92.8171 46.6125 92.8873C46.4765 92.9546 46.3528 93.0462 46.2519 93.1639C46.1511 93.28 46.0686 93.4068 46.0105 93.5657C45.9525 93.7169 45.925 93.888 45.925 94.0668Z" fill="#184376"/>
<path d="M51.6771 92.2136V95.7566H51.0919V91.1243H51.5457L54.4225 94.736V91.1259H55.0122V95.7566H54.5172L51.6771 92.2136Z" fill="#184376"/>
<path d="M56.8059 95.8268C56.647 95.8268 56.4957 95.7901 56.3567 95.7397C56.2161 95.6847 56.0954 95.6129 55.9946 95.5151C55.8907 95.425 55.8113 95.3058 55.7502 95.1821C55.6936 95.0492 55.6661 94.9101 55.6661 94.7619C55.6661 94.5985 55.6998 94.4549 55.7685 94.3311C55.8357 94.1967 55.9335 94.0928 56.0664 93.9965C56.1932 93.9094 56.3491 93.833 56.5232 93.7872C56.702 93.7353 56.8929 93.7047 57.1007 93.7047C57.2642 93.7047 57.4338 93.723 57.6064 93.7505C57.7745 93.7796 57.9227 93.8208 58.0571 93.8728V93.6039C58.0571 93.3197 57.9807 93.1119 57.8264 92.9469C57.6645 92.785 57.4414 92.704 57.1527 92.704C56.8135 92.704 56.4484 92.8385 56.071 93.1119L55.88 92.7315C56.32 92.4321 56.7631 92.2839 57.2077 92.2839C57.6523 92.2839 58.0036 92.4076 58.2557 92.6505C58.5048 92.8874 58.63 93.2219 58.63 93.6528V95.0476C58.63 95.1836 58.6896 95.2524 58.8118 95.2615V95.755C58.7507 95.7642 58.7018 95.7733 58.6621 95.7749C58.6209 95.7764 58.5811 95.7764 58.5399 95.7764C58.4268 95.7764 58.3367 95.7473 58.2695 95.6771C58.2023 95.6099 58.1564 95.5304 58.1457 95.4342L58.1335 95.1928C57.9807 95.4005 57.7867 95.5518 57.556 95.6618C57.3207 95.7642 57.0717 95.8237 56.8043 95.8237M56.9602 95.3929C57.1634 95.3929 57.3543 95.3547 57.5316 95.2814C57.7103 95.1973 57.8402 95.0965 57.9288 94.9712C58.0113 94.8887 58.0556 94.8123 58.0556 94.7192V94.2165C57.776 94.1096 57.4857 94.0515 57.1878 94.0515C56.8899 94.0515 56.6653 94.1157 56.4835 94.2394C56.3047 94.3571 56.2116 94.516 56.2116 94.713C56.2116 94.8139 56.2314 94.8979 56.2681 94.9804C56.3047 95.0644 56.3567 95.1393 56.4285 95.1973C56.4927 95.2554 56.5691 95.3074 56.6638 95.3364C56.7539 95.3776 56.8517 95.396 56.9586 95.396" fill="#184376"/>
<path d="M59.2595 94.0485C59.2595 93.8071 59.2992 93.581 59.3817 93.3671C59.4672 93.1562 59.5818 92.9622 59.7346 92.8049C59.8889 92.6505 60.0692 92.5268 60.2815 92.4305C60.4924 92.3312 60.7261 92.2839 60.992 92.2839C61.3311 92.2839 61.6214 92.3694 61.8674 92.5146C62.1149 92.6643 62.3013 92.866 62.4265 93.118L61.8674 93.2937C61.7772 93.1349 61.655 93.0096 61.5007 92.9103C61.3434 92.8247 61.1661 92.7835 60.9752 92.7835C60.8208 92.7835 60.6711 92.814 60.5321 92.8782C60.3915 92.9454 60.2724 93.0218 60.1715 93.144C60.0722 93.2555 59.9928 93.39 59.9363 93.5397C59.8767 93.7017 59.8446 93.859 59.8446 94.0454C59.8446 94.2318 59.8767 94.3937 59.9363 94.5496C59.9974 94.7023 60.0814 94.8414 60.1838 94.956C60.2877 95.0705 60.4022 95.1592 60.5428 95.2233C60.6803 95.2921 60.8254 95.3272 60.9813 95.3272C61.0836 95.3272 61.1845 95.3073 61.2822 95.2814C61.377 95.2508 61.4686 95.2203 61.5481 95.1729C61.6275 95.1164 61.7024 95.0614 61.762 94.9972C61.8215 94.9361 61.8674 94.8704 61.8903 94.7925L62.4571 94.9651C62.4021 95.0919 62.3288 95.208 62.234 95.3074C62.1409 95.4174 62.0309 95.506 61.9056 95.5824C61.7772 95.6542 61.6382 95.7122 61.4824 95.755C61.3296 95.7962 61.1661 95.8192 60.995 95.8192C60.7384 95.8192 60.5046 95.7733 60.2892 95.6771C60.0753 95.5839 59.892 95.4525 59.7377 95.2936C59.5895 95.1317 59.4672 94.9422 59.3847 94.7298C59.2992 94.5114 59.2579 94.2822 59.2579 94.0469" fill="#184376"/>
<path d="M63.0422 90.9883H63.6182V91.7064H63.0422V90.9883ZM63.0422 92.3526H63.6182V95.7581H63.0422V92.3526Z" fill="#184376"/>
<path d="M65.9695 95.8207C65.7113 95.8207 65.476 95.7749 65.2636 95.6786C65.0513 95.5854 64.871 95.454 64.7228 95.2951C64.5731 95.1332 64.4555 94.9437 64.3745 94.736C64.2905 94.5144 64.2507 94.2929 64.2507 94.0607C64.2507 93.8147 64.2905 93.5932 64.376 93.3778C64.46 93.1669 64.5792 92.9805 64.7274 92.8155C64.8817 92.6597 65.0574 92.5253 65.2698 92.4305C65.4806 92.3312 65.7143 92.2839 65.968 92.2839C66.2216 92.2839 66.4538 92.3312 66.6631 92.4305C66.88 92.5268 67.0618 92.6597 67.2131 92.8155C67.3628 92.9805 67.4774 93.1669 67.566 93.3778C67.6485 93.5947 67.6898 93.8147 67.6898 94.0607C67.6898 94.2929 67.647 94.5144 67.566 94.736C67.482 94.9437 67.3689 95.1347 67.2146 95.2951C67.0618 95.454 66.88 95.5854 66.6692 95.6786C66.4568 95.7749 66.2246 95.8207 65.968 95.8207M64.8405 94.0668C64.8405 94.2486 64.868 94.4044 64.926 94.5572C64.9856 94.7115 65.065 94.846 65.1674 94.9621C65.2713 95.0736 65.3905 95.1622 65.5249 95.2264C65.6655 95.2951 65.8075 95.3303 65.9695 95.3303C66.1314 95.3303 66.2735 95.2967 66.411 95.2264C66.5485 95.1622 66.6646 95.0736 66.7716 94.959C66.8785 94.8444 66.958 94.7054 67.0191 94.5526C67.0756 94.4014 67.1046 94.2333 67.1046 94.0515C67.1046 93.8697 67.0756 93.7108 67.0191 93.5626C66.958 93.4083 66.8785 93.2708 66.7716 93.1578C66.6646 93.0386 66.5485 92.95 66.411 92.8812C66.2735 92.8171 66.1253 92.7865 65.9695 92.7865C65.8136 92.7865 65.6639 92.8171 65.5249 92.8873C65.3905 92.9546 65.2713 93.0462 65.1674 93.1639C65.065 93.28 64.9856 93.4068 64.926 93.5657C64.8664 93.7169 64.8405 93.888 64.8405 94.0668Z" fill="#184376"/>
<path d="M71.2846 95.7565H70.7102V93.8498C70.7102 93.4817 70.6536 93.2173 70.5436 93.0493C70.4321 92.8858 70.2641 92.8049 70.0364 92.8049C69.9203 92.8049 69.8042 92.8262 69.6866 92.8675C69.5689 92.9118 69.4559 92.9805 69.3535 93.0646C69.2466 93.141 69.1534 93.2296 69.0785 93.3335C69.0021 93.4557 68.9425 93.5642 68.8998 93.7032V95.7565H68.3284V92.3511H68.8524V93.0829C68.9823 92.8385 69.1793 92.649 69.436 92.5039C69.6866 92.3572 69.9677 92.2839 70.2671 92.2839C70.4627 92.2839 70.6292 92.3205 70.7575 92.3924C70.8905 92.4703 70.9913 92.5665 71.0738 92.6918C71.1502 92.8262 71.2052 92.9729 71.2373 93.1471C71.2739 93.3228 71.2861 93.5137 71.2861 93.7154V95.7565H71.2846Z" fill="#184376"/>
<path d="M72.9926 95.8268C72.8292 95.8268 72.6794 95.7901 72.5419 95.7397C72.4029 95.6847 72.2807 95.6129 72.1783 95.5151C72.0744 95.425 71.9935 95.3058 71.9369 95.1821C71.8774 95.0492 71.8468 94.9101 71.8468 94.7619C71.8468 94.5985 71.8835 94.4549 71.9553 94.3311C72.0225 94.1967 72.1218 94.0928 72.2517 93.9965C72.3754 93.9094 72.5297 93.833 72.7024 93.7872C72.8811 93.7353 73.0736 93.7047 73.2875 93.7047C73.4494 93.7047 73.6175 93.723 73.7901 93.7505C73.9597 93.7796 74.1064 93.8208 74.2393 93.8728V93.6039C74.2393 93.3197 74.1614 93.1119 74.0056 92.9469C73.8467 92.785 73.6236 92.704 73.3349 92.704C72.9957 92.704 72.629 92.8385 72.2517 93.1119L72.0607 92.7315C72.5007 92.4321 72.9453 92.2839 73.3899 92.2839C73.8344 92.2839 74.1889 92.4076 74.4394 92.6505C74.6885 92.8874 74.8137 93.2219 74.8137 93.6528V95.0476C74.8137 95.1836 74.8749 95.2524 74.994 95.2615V95.755C74.9344 95.7642 74.8825 95.7733 74.8443 95.7749C74.8046 95.7764 74.7664 95.7764 74.7236 95.7764C74.606 95.7764 74.5189 95.7473 74.4501 95.6771C74.3814 95.6099 74.3417 95.5304 74.331 95.4342L74.3187 95.1928C74.1629 95.4005 73.9704 95.5518 73.7382 95.6618C73.5044 95.7642 73.2554 95.8237 72.9926 95.8237M73.1408 95.3929C73.344 95.3929 73.5381 95.3547 73.7122 95.2814C73.8894 95.1973 74.0224 95.0965 74.1156 94.9712C74.1981 94.8887 74.2393 94.8123 74.2393 94.7192V94.2165C73.9612 94.1096 73.671 94.0515 73.37 94.0515C73.069 94.0515 72.846 94.1157 72.6687 94.2394C72.4854 94.3571 72.3953 94.516 72.3953 94.713C72.3953 94.8139 72.4151 94.8979 72.4503 94.9804C72.4931 95.0644 72.5419 95.1393 72.6092 95.1973C72.6764 95.2554 72.7574 95.3074 72.8444 95.3364C72.9361 95.3776 73.0369 95.396 73.1393 95.396" fill="#184376"/>
<path d="M75.683 90.9883H76.256V94.8811C76.256 95.0003 76.2911 95.0981 76.3568 95.176C76.424 95.2447 76.5218 95.2829 76.6394 95.2829C76.6899 95.2829 76.7464 95.2738 76.8105 95.26C76.8762 95.2463 76.9389 95.2233 76.9939 95.2065L77.084 95.6695C76.9939 95.7077 76.8762 95.7382 76.7479 95.7642C76.6165 95.7901 76.4989 95.8054 76.4042 95.8054C76.1765 95.8054 76.0054 95.7413 75.8755 95.6145C75.7472 95.4846 75.6815 95.312 75.6815 95.0889V90.9899L75.683 90.9883Z" fill="#184376"/>
<path d="M80.2709 95.8207C80.0341 95.8207 79.8157 95.7749 79.614 95.6786C79.4169 95.5854 79.2443 95.454 79.0991 95.2951C78.9555 95.1332 78.841 94.9438 78.7615 94.736C78.6836 94.5145 78.6393 94.2929 78.6393 94.0607C78.6393 93.8147 78.6805 93.5932 78.7554 93.3732C78.8318 93.1639 78.9357 92.9699 79.0732 92.8156C79.2137 92.6506 79.3742 92.5268 79.5636 92.4321C79.7515 92.3328 79.9639 92.2854 80.1869 92.2854C80.4589 92.2854 80.7094 92.3603 80.9233 92.5054C81.1403 92.6521 81.3114 92.8201 81.4366 93.0264V90.9899H82.0126V95.0507C82.0126 95.1897 82.0753 95.2554 82.199 95.2646V95.7581C82.1364 95.7672 82.0875 95.7764 82.0493 95.7779C82.0126 95.7794 81.9744 95.7794 81.9393 95.7794C81.8293 95.7794 81.7315 95.7397 81.6429 95.6679C81.5589 95.5885 81.5191 95.506 81.5191 95.4036V95.1149C81.3801 95.3333 81.1998 95.5136 80.9768 95.6313C80.7522 95.7611 80.5184 95.8207 80.2709 95.8207ZM80.4085 95.3303C80.5108 95.3303 80.6178 95.3058 80.7278 95.2707C80.8408 95.2264 80.9462 95.176 81.0425 95.1057C81.1418 95.0385 81.2243 94.9514 81.2976 94.8567C81.3725 94.765 81.4168 94.6657 81.4382 94.5588V93.5825C81.3954 93.474 81.3404 93.3747 81.2594 93.2724C81.1846 93.1715 81.0959 93.089 80.9966 93.0203C80.8989 92.95 80.795 92.8919 80.6804 92.8492C80.5704 92.8079 80.4604 92.7881 80.355 92.7881C80.1854 92.7881 80.0326 92.8201 79.8951 92.892C79.7546 92.9653 79.6354 93.0676 79.5407 93.1776C79.4444 93.3029 79.3665 93.4358 79.3146 93.5963C79.2642 93.746 79.2351 93.9033 79.2351 94.0683C79.2351 94.2333 79.2657 94.4029 79.3268 94.5542C79.3879 94.707 79.4704 94.846 79.5728 94.9514C79.6797 95.069 79.8019 95.1592 79.944 95.2279C80.0861 95.2936 80.2373 95.3318 80.4069 95.3318" fill="#184376"/>
<path d="M84.4204 95.8207C84.1622 95.8207 83.9254 95.7779 83.7131 95.6786C83.4961 95.5854 83.3189 95.4571 83.1646 95.2982C83.0118 95.1424 82.8911 94.9483 82.8102 94.7344C82.7216 94.5129 82.6803 94.2914 82.6803 94.0485C82.6803 93.8055 82.7216 93.5901 82.8102 93.3717C82.8911 93.1623 83.0118 92.9683 83.1661 92.814C83.322 92.649 83.5053 92.5253 83.7177 92.426C83.9331 92.3312 84.1668 92.2839 84.425 92.2839C84.6832 92.2839 84.9139 92.3312 85.1247 92.4305C85.3386 92.5268 85.5189 92.6536 85.6656 92.814C85.8107 92.9683 85.9284 93.1562 86.0124 93.3717C86.0888 93.5794 86.13 93.7964 86.13 94.0225C86.13 94.0698 86.13 94.1187 86.1254 94.1539C86.1224 94.1951 86.1147 94.2242 86.1147 94.2501H83.2884C83.299 94.4167 83.3388 94.5755 83.4014 94.7085C83.4656 94.8444 83.5542 94.9682 83.6566 95.0721C83.762 95.1729 83.8811 95.2523 84.014 95.3043C84.1454 95.3669 84.286 95.3929 84.4327 95.3929C84.5396 95.3929 84.6389 95.3792 84.7428 95.3455C84.8421 95.3226 84.9368 95.2829 85.0209 95.2355C85.1079 95.1867 85.1859 95.1332 85.2531 95.0599C85.3188 94.9835 85.3753 94.9086 85.4074 94.82L85.9039 94.9605C85.8489 95.0843 85.7695 95.2019 85.6702 95.3028C85.5709 95.4051 85.4578 95.4998 85.334 95.5778C85.2042 95.6526 85.0591 95.7107 84.9002 95.7535C84.7504 95.7947 84.5809 95.8176 84.4143 95.8176M85.5861 93.8208C85.5739 93.665 85.5327 93.5046 85.47 93.3732C85.3967 93.2326 85.3127 93.118 85.2103 93.0249C85.111 92.9255 84.9903 92.8553 84.8528 92.8033C84.7214 92.7514 84.5763 92.7239 84.425 92.7239C84.2738 92.7239 84.1271 92.7514 83.9927 92.8033C83.8582 92.8553 83.736 92.9255 83.6367 93.0249C83.5343 93.1287 83.4472 93.2479 83.3892 93.3778C83.3235 93.5137 83.2899 93.665 83.2731 93.8208H85.5846H85.5861Z" fill="#184376"/>
<path d="M91.1044 92.0914C91.054 92.0333 90.9868 91.9768 90.8982 91.9142C90.808 91.8607 90.7118 91.8103 90.6048 91.7614C90.4964 91.7186 90.3726 91.6789 90.2489 91.6529C90.1175 91.6331 89.9861 91.6071 89.8455 91.6071C89.4865 91.6071 89.2253 91.6789 89.0496 91.8103C88.883 91.9463 88.8036 92.1311 88.8036 92.3695C88.8036 92.4947 88.8265 92.6032 88.8785 92.6872C88.9197 92.7636 88.9961 92.8354 89.1 92.8889C89.2008 92.95 89.3292 93.002 89.4835 93.0493C89.6378 93.086 89.815 93.1364 90.0228 93.1807C90.2611 93.2326 90.478 93.2938 90.6751 93.3564C90.8676 93.4282 91.0311 93.5138 91.1732 93.6115C91.3046 93.7078 91.4115 93.8331 91.4803 93.9828C91.5551 94.1218 91.5887 94.2945 91.5887 94.5129C91.5887 94.7314 91.5444 94.9239 91.4604 95.0858C91.3687 95.2524 91.2511 95.3792 91.0983 95.4876C90.9517 95.5946 90.7775 95.6786 90.5697 95.726C90.3635 95.7779 90.1389 95.8024 89.9021 95.8024C89.5446 95.8024 89.2008 95.7397 88.8861 95.6313C88.5668 95.5243 88.2765 95.367 88.0153 95.1454L88.2979 94.6535C88.3621 94.7314 88.4553 94.8032 88.5668 94.8811C88.6768 94.9514 88.8005 95.0125 88.9487 95.0751C89.0847 95.1393 89.2375 95.1867 89.4025 95.2233C89.566 95.2539 89.7386 95.2738 89.9128 95.2738C90.2458 95.2738 90.5055 95.2203 90.6874 95.0981C90.8676 94.9804 90.9623 94.8047 90.9623 94.571C90.9623 94.4411 90.9318 94.3296 90.8737 94.2456C90.8142 94.1478 90.7255 94.0729 90.6155 94.0103C90.4994 93.9431 90.3635 93.8896 90.1908 93.8361C90.0258 93.7827 89.8348 93.7368 89.621 93.6818C89.3872 93.6238 89.1779 93.5642 89.0037 93.5C88.8235 93.4313 88.6722 93.3549 88.553 93.2632C88.4293 93.17 88.3437 93.0661 88.278 92.9256C88.2215 92.8033 88.1894 92.6368 88.1894 92.4565C88.1894 92.2426 88.2307 92.0364 88.3162 91.8699C88.3926 91.7033 88.5103 91.5552 88.66 91.4314C88.8067 91.3214 88.9839 91.2343 89.1886 91.1747C89.3949 91.1197 89.6148 91.0892 89.8562 91.0892C90.1633 91.0892 90.4551 91.1381 90.7042 91.2313C90.9532 91.3229 91.1839 91.4574 91.3764 91.6147L91.1014 92.0929L91.1044 92.0914Z" fill="#184376"/>
<path d="M93.0753 95.8268C92.9225 95.8268 92.7682 95.7901 92.6307 95.7397C92.4901 95.6847 92.3679 95.6129 92.2686 95.5151C92.1632 95.425 92.0837 95.3058 92.0257 95.1821C91.9661 95.0492 91.9386 94.9101 91.9386 94.7619C91.9386 94.5985 91.9722 94.4549 92.0394 94.3311C92.1112 94.1967 92.2105 94.0928 92.3358 93.9965C92.4718 93.9094 92.62 93.833 92.7972 93.7872C92.9729 93.7353 93.1685 93.7047 93.3747 93.7047C93.5412 93.7047 93.7123 93.723 93.8789 93.7505C94.0485 93.7796 94.1997 93.8208 94.3311 93.8728V93.6039C94.3311 93.3197 94.2501 93.1119 94.0943 92.9469C93.9354 92.785 93.7185 92.704 93.4267 92.704C93.0829 92.704 92.7223 92.8385 92.3404 93.1119L92.1525 92.7315C92.591 92.4321 93.0371 92.2839 93.4755 92.2839C93.914 92.2839 94.2746 92.4076 94.5236 92.6505C94.7726 92.8874 94.9025 93.2219 94.9025 93.6528V95.0476C94.9025 95.1836 94.9621 95.2524 95.0889 95.2615V95.755C95.0262 95.7642 94.9743 95.7733 94.9346 95.7749C94.8964 95.7764 94.8567 95.7764 94.8093 95.7764C94.6962 95.7764 94.6061 95.7473 94.5389 95.6771C94.4716 95.6099 94.4335 95.5304 94.4166 95.4342L94.409 95.1928C94.2547 95.4005 94.0637 95.5518 93.8269 95.6618C93.5993 95.7642 93.3457 95.8237 93.0737 95.8237M93.2296 95.3929C93.4343 95.3929 93.6253 95.3547 93.804 95.2814C93.9766 95.1973 94.1111 95.0965 94.2043 94.9712C94.2868 94.8887 94.3296 94.8123 94.3296 94.7192V94.2165C94.0454 94.1096 93.7582 94.0515 93.4557 94.0515C93.1715 94.0515 92.9332 94.1157 92.7575 94.2394C92.5772 94.3571 92.4825 94.516 92.4825 94.713C92.4825 94.8139 92.5039 94.8979 92.5436 94.9804C92.5772 95.0644 92.6292 95.1393 92.6994 95.1973C92.7636 95.2554 92.8446 95.3074 92.9332 95.3364C93.0248 95.3776 93.1272 95.396 93.2296 95.396" fill="#184376"/>
<path d="M95.7703 90.9883H96.3478V94.8811C96.3478 95.0003 96.3799 95.0981 96.4487 95.176C96.5128 95.2447 96.6106 95.2829 96.7298 95.2829C96.7787 95.2829 96.8352 95.2738 96.9024 95.26C96.9635 95.2463 97.0262 95.2233 97.0827 95.2065L97.1728 95.6695C97.0766 95.7077 96.962 95.7382 96.8337 95.7642C96.7023 95.7901 96.5907 95.8054 96.4869 95.8054C96.2669 95.8054 96.0896 95.7413 95.9659 95.6145C95.8345 95.4846 95.7688 95.312 95.7688 95.0889V90.9899L95.7703 90.9883Z" fill="#184376"/>
<path d="M98.6119 95.8268C98.2575 95.8268 97.9871 95.7061 97.8022 95.4586C97.6189 95.2218 97.5303 94.8674 97.5303 94.3968V92.3527H98.1047V94.2853C98.1047 94.9804 98.3446 95.3303 98.8304 95.3303C99.0642 95.3303 99.2826 95.2539 99.4981 95.0981C99.7012 94.9514 99.8525 94.7452 99.9518 94.4839V92.3527H100.531V95.0492C100.531 95.1882 100.587 95.2539 100.713 95.2631V95.7566C100.645 95.7657 100.593 95.7749 100.56 95.7749C100.519 95.7764 100.483 95.7764 100.451 95.7764C100.335 95.7764 100.242 95.7397 100.161 95.6786C100.088 95.6084 100.047 95.5228 100.043 95.4235L100.027 95.0247C99.88 95.2845 99.6783 95.4831 99.4262 95.6145C99.1803 95.7566 98.9053 95.8268 98.6104 95.8268" fill="#184376"/>
<path d="M102.83 95.8207C102.592 95.8207 102.375 95.7749 102.176 95.6786C101.976 95.5854 101.799 95.454 101.661 95.2951C101.515 95.1332 101.403 94.9438 101.321 94.736C101.244 94.5145 101.203 94.2929 101.203 94.0607C101.203 93.8147 101.24 93.5932 101.316 93.3732C101.394 93.1639 101.501 92.9699 101.632 92.8156C101.773 92.6506 101.936 92.5268 102.124 92.4321C102.317 92.3328 102.525 92.2854 102.751 92.2854C103.026 92.2854 103.27 92.3603 103.482 92.5054C103.698 92.6521 103.869 92.8201 103.996 93.0264V90.9899H104.569V95.0507C104.569 95.1897 104.631 95.2554 104.754 95.2646V95.7581C104.691 95.7672 104.645 95.7764 104.605 95.7779C104.569 95.7794 104.535 95.7794 104.497 95.7794C104.381 95.7794 104.283 95.7397 104.202 95.6679C104.115 95.5885 104.077 95.506 104.077 95.4036V95.1149C103.938 95.3333 103.756 95.5136 103.536 95.6313C103.308 95.7611 103.075 95.8207 102.829 95.8207M102.963 95.3303C103.067 95.3303 103.177 95.3058 103.287 95.2707C103.4 95.2264 103.502 95.176 103.602 95.1057C103.699 95.0385 103.783 94.9514 103.857 94.8567C103.927 94.765 103.974 94.6657 103.996 94.5588V93.5825C103.959 93.474 103.896 93.3747 103.82 93.2724C103.742 93.1715 103.649 93.089 103.557 93.0203C103.458 92.95 103.351 92.8919 103.24 92.8492C103.131 92.8079 103.02 92.7881 102.911 92.7881C102.74 92.7881 102.587 92.8201 102.456 92.892C102.317 92.9653 102.198 93.0676 102.1 93.1776C102.001 93.3029 101.923 93.4358 101.874 93.5963C101.819 93.746 101.793 93.9033 101.793 94.0683C101.793 94.2333 101.822 94.4029 101.889 94.5542C101.949 94.707 102.026 94.846 102.135 94.9514C102.239 95.069 102.358 95.1592 102.506 95.2279C102.644 95.2936 102.796 95.3318 102.963 95.3318" fill="#184376"/>
<path d="M107.141 95.7566V91.1243H109.077C109.286 91.1243 109.471 91.1595 109.646 91.2481C109.818 91.3321 109.966 91.4467 110.093 91.5827C110.214 91.7293 110.312 91.8852 110.38 92.0654C110.449 92.2427 110.484 92.4229 110.484 92.6078C110.484 92.7927 110.455 92.9806 110.386 93.1563C110.324 93.3335 110.232 93.497 110.111 93.6314C109.992 93.7765 109.847 93.8866 109.682 93.9629C109.513 94.0485 109.326 94.0913 109.121 94.0913H107.737V95.755H107.143L107.141 95.7566ZM107.736 93.5642H109.086C109.209 93.5642 109.316 93.5413 109.415 93.497C109.514 93.4465 109.601 93.3717 109.67 93.28C109.739 93.1975 109.795 93.0921 109.83 92.9684C109.872 92.8538 109.891 92.73 109.891 92.6078C109.891 92.4703 109.866 92.3404 109.82 92.2213C109.778 92.1097 109.717 91.9982 109.639 91.9142C109.563 91.8271 109.471 91.7568 109.371 91.7171C109.268 91.6606 109.161 91.6377 109.048 91.6377H107.736V93.5642Z" fill="#184376"/>
<path d="M112.114 95.8268C111.755 95.8268 111.483 95.7061 111.3 95.4586C111.118 95.2218 111.027 94.8674 111.027 94.3968V92.3526H111.601V94.2853C111.601 94.9804 111.842 95.3303 112.328 95.3303C112.562 95.3303 112.785 95.2539 112.987 95.0981C113.201 94.9514 113.349 94.7451 113.448 94.4839V92.3526H114.026V95.0492C114.026 95.1852 114.087 95.2539 114.206 95.2631V95.7565C114.142 95.7657 114.087 95.7749 114.058 95.7749C114.015 95.7764 113.977 95.7764 113.946 95.7764C113.835 95.7764 113.738 95.7397 113.664 95.6786C113.584 95.6083 113.544 95.5228 113.543 95.4235L113.526 95.0247C113.372 95.2845 113.176 95.4831 112.926 95.6145C112.681 95.7565 112.411 95.8268 112.113 95.8268M112.616 91.7767L112.235 91.6422L112.616 90.9883H113.188L112.616 91.7767Z" fill="#184376"/>
<path d="M116.676 95.8207C116.404 95.8207 116.162 95.7565 115.946 95.6313C115.726 95.4968 115.557 95.3288 115.43 95.1149V95.7565H114.924V90.9868H115.499V93.0233C115.642 92.8033 115.818 92.6246 116.024 92.4856C116.232 92.3572 116.479 92.2824 116.757 92.2824C116.993 92.2824 117.205 92.3389 117.393 92.4413C117.579 92.536 117.737 92.672 117.873 92.8339C118.001 92.9943 118.105 93.1868 118.18 93.4053C118.25 93.6115 118.288 93.8377 118.288 94.0653C118.288 94.3052 118.244 94.5328 118.164 94.7421C118.079 94.9575 117.967 95.1439 117.818 95.3043C117.679 95.4571 117.508 95.5854 117.306 95.6786C117.109 95.7764 116.898 95.8207 116.676 95.8207ZM116.53 95.3303C116.698 95.3303 116.857 95.2921 117 95.2234C117.139 95.1485 117.268 95.0629 117.375 94.9392C117.472 94.8246 117.558 94.6932 117.616 94.5404C117.671 94.3938 117.697 94.2333 117.697 94.0683C117.697 93.9033 117.671 93.7414 117.618 93.5825C117.564 93.4297 117.486 93.2953 117.385 93.1761C117.288 93.0661 117.173 92.9638 117.035 92.8904C116.899 92.8202 116.745 92.7865 116.579 92.7865C116.463 92.7865 116.345 92.8064 116.232 92.8476C116.126 92.8904 116.024 92.9515 115.932 93.0233C115.838 93.0997 115.754 93.1761 115.685 93.2708C115.615 93.3747 115.55 93.4725 115.499 93.581V94.5695C115.517 94.681 115.567 94.7772 115.634 94.872C115.708 94.9621 115.795 95.037 115.891 95.1042C115.99 95.1745 116.094 95.2264 116.206 95.2692C116.319 95.3043 116.424 95.3288 116.53 95.3288" fill="#184376"/>
<path d="M118.936 90.9883H119.513V94.8811C119.513 95.0003 119.545 95.0981 119.614 95.176C119.678 95.2447 119.775 95.2829 119.897 95.2829C119.95 95.2829 120.004 95.2738 120.065 95.26C120.134 95.2463 120.193 95.2233 120.251 95.2065L120.343 95.6695C120.251 95.7077 120.134 95.7382 120.004 95.7642C119.872 95.7901 119.755 95.8054 119.657 95.8054C119.436 95.8054 119.263 95.7413 119.133 95.6145C119.002 95.4846 118.936 95.312 118.936 95.0889V90.9899V90.9883Z" fill="#184376"/>
<path d="M120.731 90.9883H121.307V91.7064H120.731V90.9883ZM120.731 92.3526H121.307V95.7581H120.731V92.3526Z" fill="#184376"/>
<path d="M121.937 94.0485C121.937 93.8071 121.978 93.581 122.063 93.3671C122.143 93.1562 122.263 92.9622 122.413 92.8049C122.566 92.6505 122.746 92.5268 122.959 92.4305C123.171 92.3312 123.406 92.2839 123.672 92.2839C124.005 92.2839 124.3 92.3694 124.551 92.5146C124.797 92.6643 124.981 92.866 125.104 93.118L124.543 93.2937C124.456 93.1349 124.338 93.0096 124.178 92.9103C124.02 92.8247 123.848 92.7835 123.657 92.7835C123.499 92.7835 123.35 92.814 123.212 92.8782C123.072 92.9454 122.954 93.0218 122.852 93.144C122.752 93.2555 122.676 93.39 122.615 93.5397C122.555 93.7017 122.528 93.859 122.528 94.0454C122.528 94.2318 122.555 94.3937 122.615 94.5496C122.677 94.7023 122.76 94.8414 122.862 94.956C122.966 95.0705 123.084 95.1592 123.223 95.2233C123.359 95.2921 123.507 95.3272 123.666 95.3272C123.77 95.3272 123.863 95.3073 123.958 95.2814C124.056 95.2508 124.146 95.2203 124.228 95.1729C124.309 95.1164 124.376 95.0614 124.437 94.9972C124.505 94.9361 124.544 94.8704 124.567 94.7925L125.134 94.9651C125.081 95.0919 125.012 95.208 124.917 95.3074C124.826 95.4174 124.711 95.506 124.589 95.5824C124.457 95.6542 124.32 95.7122 124.167 95.755C124.008 95.7962 123.851 95.8192 123.678 95.8192C123.42 95.8192 123.186 95.7733 122.974 95.6771C122.76 95.5839 122.575 95.4525 122.422 95.2936C122.268 95.1317 122.153 94.9422 122.068 94.7298C121.981 94.5114 121.938 94.2822 121.938 94.0469" fill="#184376"/>
<path d="M126.593 95.8268C126.433 95.8268 126.286 95.7901 126.143 95.7397C126.003 95.6847 125.883 95.6129 125.782 95.5151C125.678 95.425 125.602 95.3058 125.541 95.1821C125.479 95.0492 125.45 94.9101 125.45 94.7619C125.45 94.5985 125.486 94.4549 125.557 94.3311C125.626 94.1967 125.722 94.0928 125.855 93.9965C125.981 93.9094 126.132 93.833 126.312 93.7872C126.489 93.7353 126.682 93.7047 126.89 93.7047C127.053 93.7047 127.223 93.723 127.389 93.7505C127.56 93.7796 127.71 93.8208 127.844 93.8728V93.6039C127.844 93.3197 127.767 93.1119 127.608 92.9469C127.447 92.785 127.229 92.704 126.94 92.704C126.596 92.704 126.234 92.8385 125.861 93.1119L125.672 92.7315C126.109 92.4321 126.55 92.2839 126.992 92.2839C127.433 92.2839 127.794 92.4076 128.042 92.6505C128.294 92.8874 128.416 93.2219 128.416 93.6528V95.0476C128.416 95.1836 128.478 95.2524 128.602 95.2615V95.755C128.541 95.7642 128.492 95.7733 128.451 95.7749C128.413 95.7764 128.37 95.7764 128.326 95.7764C128.214 95.7764 128.123 95.7473 128.057 95.6771C127.991 95.6099 127.95 95.5304 127.938 95.4342L127.925 95.1928C127.773 95.4005 127.58 95.5518 127.348 95.6618C127.113 95.7642 126.865 95.8237 126.598 95.8237M126.743 95.3929C126.955 95.3929 127.14 95.3547 127.319 95.2814C127.495 95.1973 127.629 95.0965 127.721 94.9712C127.8 94.8887 127.846 94.8123 127.846 94.7192V94.2165C127.562 94.1096 127.278 94.0515 126.977 94.0515C126.676 94.0515 126.456 94.1157 126.272 94.2394C126.092 94.3571 126 94.516 126 94.713C126 94.8139 126.025 94.8979 126.055 94.9804C126.097 95.0644 126.147 95.1393 126.214 95.1973C126.283 95.2554 126.361 95.3074 126.456 95.3364C126.543 95.3776 126.642 95.396 126.744 95.396" fill="#184376"/>
<path d="M132.159 91.1243H132.658L134.551 95.7566H133.93L133.377 94.3999H131.43L130.886 95.7566H130.263L132.159 91.1243ZM133.245 93.9416L132.408 91.7996L131.548 93.9416H133.245Z" fill="#184376"/>
<path d="M135.451 95.0247H134.972V95.7581H135.451V95.0247Z" fill="#184376"/>
<path d="M135.969 93.4068C135.969 93.1272 136.018 92.8461 136.117 92.5742C136.217 92.2946 136.36 92.0486 136.551 91.8271C136.741 91.6071 136.968 91.4299 137.246 91.2939C137.52 91.1579 137.831 91.0938 138.18 91.0938C138.594 91.0938 138.951 91.1869 139.246 91.3718C139.543 91.5613 139.761 91.8011 139.903 92.1082L139.442 92.4061C139.373 92.2549 139.287 92.1296 139.19 92.0318C139.093 91.9325 138.988 91.85 138.873 91.7889C138.756 91.7278 138.635 91.6865 138.514 91.6606C138.389 91.6361 138.271 91.6178 138.155 91.6178C137.9 91.6178 137.67 91.6789 137.474 91.7858C137.275 91.8851 137.106 92.0272 136.968 92.2029C136.837 92.3725 136.735 92.5665 136.667 92.7758C136.599 92.9943 136.568 93.2113 136.568 93.4282C136.568 93.6757 136.611 93.9094 136.687 94.1218C136.77 94.3479 136.881 94.5419 137.025 94.71C137.17 94.8842 137.341 95.011 137.534 95.1133C137.729 95.2203 137.948 95.2692 138.175 95.2692C138.299 95.2692 138.424 95.2524 138.55 95.2218C138.681 95.1867 138.806 95.1424 138.921 95.0736C139.04 94.9987 139.147 94.9208 139.249 94.8139C139.352 94.7176 139.439 94.5924 139.501 94.4518L139.99 94.7192C139.921 94.8903 139.816 95.0461 139.683 95.1821C139.55 95.3089 139.401 95.425 139.232 95.5151C139.061 95.6114 138.886 95.6801 138.701 95.7275C138.51 95.7764 138.33 95.7917 138.151 95.7917C137.83 95.7917 137.544 95.7275 137.277 95.5869C137.013 95.4479 136.78 95.2707 136.586 95.0369C136.392 94.8154 136.244 94.5664 136.134 94.2807C136.027 93.9965 135.974 93.7063 135.974 93.4068" fill="#184376"/>
<path d="M141.006 95.0247H140.525V95.7581H141.006V95.0247Z" fill="#184376"/>
<path d="M80.9768 119.741C43.9496 119.741 13.9334 99.7975 13.9334 75.2033C13.9334 50.6091 43.9496 30.6625 80.9768 30.6625C98.8656 30.6625 115.101 35.3314 127.122 42.9076C114.461 33.6523 96.4822 27.859 76.5279 27.859C38.1868 27.859 7.10571 49.2128 7.10571 75.5517C7.10571 101.891 38.1853 123.244 76.5279 123.244C99.7731 123.244 120.334 115.388 132.93 103.347C120.639 113.353 101.935 119.741 80.9783 119.741" fill="#00ABE1"/>
<path d="M131.404 37.5513C143.154 46.9853 152.365 61.0118 152.365 74.5418C152.365 106.868 118.769 126.463 76.7571 126.463C53.6204 126.463 32.9099 119.177 18.9551 107.693C32.7372 122.827 57.1924 132.892 85.0789 132.892C128.148 132.892 158.822 108.9 158.822 79.3054C158.822 62.4281 149.148 47.3779 131.404 37.5528" fill="#1D71B3"/>
</svg>
