<svg width="225" height="52" viewBox="0 0 225 52" fill="none" xmlns="http://www.w3.org/2000/svg">
<g clip-path="url(#clip0_39_5953)">
<path d="M26.7027 17.3449C25.6987 15.6535 25.1195 13.6798 25.1195 11.5699C25.1195 5.30088 30.2183 0.219107 36.5083 0.219107C42.7984 0.219107 47.8972 5.30088 47.8972 11.5699C47.8972 13.6798 47.3206 15.651 46.314 17.3449H26.7027ZM39.7027 40.7549C41.6274 41.1859 43.6887 41.1229 45.7019 40.47C51.6834 38.5316 54.9561 32.1289 53.0137 26.1674C51.0713 20.2059 44.6447 16.9416 38.6632 18.88C36.65 19.5329 34.9453 20.6899 33.6428 22.1645L39.7027 40.7549ZM15.3189 41.7228C15.5035 43.6789 16.1991 45.6148 17.4434 47.3213C21.1411 52.393 28.2632 53.5173 33.3519 49.832C38.4406 46.1467 39.5686 39.0483 35.871 33.9766C34.6266 32.2701 32.9953 31.0123 31.1844 30.2334L15.3189 41.7228ZM6.86136 18.9103C5.05047 19.6892 3.41915 20.9495 2.1748 22.6535C-1.52286 27.7252 -0.394844 34.8236 4.69386 38.5089C9.78256 42.1942 16.9047 41.0699 20.6024 35.9982C21.8467 34.2917 22.5422 32.3583 22.7269 30.3997L6.86136 18.9103ZM26.0173 3.84139C24.7123 2.36676 23.0076 1.20975 20.9969 0.556883C15.0154 -1.37903 8.58879 1.88278 6.64638 7.84429C4.70144 13.8058 7.97672 20.2084 13.9582 22.1469C15.9714 22.7997 18.0327 22.8602 19.9574 22.4317L26.0173 3.84139Z" fill="#0033A1"/>
<path d="M122.528 20.0549C122.528 24.2418 120.032 26.1475 117.715 26.1475C116.64 26.1475 115.707 25.7542 114.948 24.9753C113.595 23.5914 113.158 21.4085 113.193 19.9566C113.15 17.9123 113.724 16.1276 114.774 15.0588C115.53 14.2875 116.509 13.8967 117.682 13.8967C121.013 13.8967 122.528 17.088 122.528 20.0549ZM122.528 4.59275V13.9421C121.423 12.2053 119.574 11.3256 117.032 11.3256C114.769 11.3256 112.895 12.2028 111.612 13.8589C110.464 15.3436 109.832 17.4308 109.832 19.7322C109.832 22.0336 110.434 24.3376 111.521 25.9181C112.786 27.7532 114.68 28.7211 117 28.7211C119.822 28.7211 121.765 27.3448 122.657 26.0365V28.3329H125.692V4.59275H122.526H122.528ZM130.101 28.3329H133.267V11.7138H130.101V28.3329ZM130.053 7.84701H133.313V4.59779H130.053V7.84701ZM148.865 25.2198C148 25.7845 146.725 26.15 145.615 26.15C141.841 26.15 140.152 23.0747 140.152 20.0246C140.152 16.0041 142.802 13.8993 145.42 13.8993C146.444 13.8993 147.61 14.1513 148.71 14.6076L148.781 14.6378L149.054 11.9961L149.016 11.981C148.101 11.6104 146.5 11.3306 145.293 11.3306C140.288 11.3306 136.793 14.9076 136.793 20.0297C136.793 25.1518 140.448 28.7262 145.293 28.7262C146.887 28.7262 148.146 28.5018 149.148 28.0405L149.183 28.0229L148.946 25.1694L148.867 25.2224L148.865 25.2198ZM162.315 20.4683V21.8698C162.315 24.509 160.57 26.15 157.76 26.15C156.303 26.15 154.732 25.1442 154.732 23.5209C154.732 20.7077 158.713 20.4052 160.423 20.4052C160.747 20.4052 161.076 20.4204 161.394 20.438C161.695 20.4531 162.006 20.4683 162.315 20.4708M165.618 28.3329L165.608 28.2699C165.522 27.6221 165.479 26.5634 165.479 25.0409V18.2122C165.479 13.5136 163.347 11.3281 158.764 11.3281C156.869 11.3281 155.023 11.8524 153.281 12.8885L153.25 12.9061L153.422 15.6411L153.508 15.568C154.735 14.537 156.563 13.8967 158.278 13.8967C161.126 13.8967 162.297 15.1117 162.312 18.0862C161.139 18.0257 160.291 18.0257 159.123 18.0257C156.242 18.0257 151.369 19.1827 151.369 23.5183C151.369 26.8734 153.546 28.7211 157.497 28.7211C160.463 28.7211 162.057 27.0171 162.636 26.2256V28.3329H165.615H165.618ZM181.046 6.10771C179.488 5.55819 177.702 5.29856 176.208 5.29856C172.115 5.29856 168.934 7.43361 168.934 11.4466C168.934 18.4693 178.676 17.0779 178.676 22.1269C178.676 24.7812 176.079 25.8172 174.227 25.8172C172.571 25.8172 170.623 25.1694 169.518 24.7182L169.194 27.728C170.689 28.2145 172.247 28.6657 173.838 28.6657C178.383 28.6657 182.118 26.7575 182.118 21.9328C182.118 14.4891 172.376 15.4924 172.376 11.1542C172.376 8.79228 174.518 8.14445 176.339 8.14445C178.026 8.14445 178.937 8.43686 180.593 9.08216L181.048 6.10519L181.046 6.10771ZM196.712 19.4096C196.712 23.7553 195.179 26.15 191.974 26.15C189.488 25.9987 188.52 24.3628 188.52 20.317V11.7163H185.353V21.5799C185.353 26.2533 187.518 28.7236 191.613 28.7236C194.005 28.7236 195.89 27.5666 196.808 25.7668V28.3354H199.876V11.7138H196.709V19.4096H196.712ZM213.154 11.5424C212.529 11.4189 212.076 11.3281 211.191 11.3281C209.476 11.3281 207.711 12.5129 206.864 14.2169V11.7163H203.894V28.3354H207.058V20.7708C207.058 16.7149 208.809 14.0959 211.517 14.0959C212.16 14.0959 212.721 14.1917 213.184 14.3832L213.262 14.416L213.586 11.6357L213.154 11.5449V11.5424ZM104.617 4.3432H100.912L98.2736 8.47215H100.578L104.619 4.3432H104.617ZM104.182 18.3836H95.7292C95.9796 16.2057 97.2594 13.8993 100.115 13.8993C102.128 13.8993 104.156 15.2857 104.182 18.3836ZM107.543 20.7052C107.543 14.4841 105.067 11.3281 100.181 11.3281C97.8841 11.3281 95.9214 12.1448 94.5051 13.69C93.1039 15.2151 92.3629 17.3073 92.3629 19.7347C92.3629 25.5324 95.4283 28.7236 100.992 28.7236C103.393 28.7236 104.728 28.2195 105.798 27.8162C105.95 27.7582 106.096 27.7053 106.238 27.6523L106.514 27.5515L106.276 24.4384L106.182 24.514C105.469 25.1014 103.165 26.1525 101.121 26.1525C98.1117 26.1525 95.752 23.7906 95.7216 20.7632H107.543V20.7077V20.7052ZM104.619 4.34572H100.914L98.2761 8.47467H100.58L104.622 4.34572H104.619ZM83.5487 5.32124L79.196 16.7124C78.1388 19.3894 77.327 21.6303 76.7756 23.3873C76.2445 21.7438 74.9091 18.124 74.3703 16.7779L69.8507 5.32124H64.0867V28.3506H67.8855V15.4722C67.8855 12.8683 67.8198 10.8492 67.6908 9.46279C67.9715 10.2871 68.2852 11.1542 68.6291 12.0591C69.2134 13.5867 74.9369 28.3506 74.9369 28.3506H78.4499C78.4499 28.3506 83.8067 14.4841 84.2139 13.3876C84.6262 12.281 85.0283 11.1492 85.4102 10.0173C85.5265 9.67201 85.6378 9.3418 85.7415 9.02671C85.7415 9.05695 85.7263 10.1182 85.7162 10.7963C85.7036 11.4768 85.6935 12.2129 85.6833 13.0094L85.6505 28.3455H89.4164V5.32124H83.5513H83.5487ZM64.0817 35.7917V42.633H68.313V41.8793H65.0175V39.5451H67.6857V38.8191H65.0175V36.5454H68.313V35.7917H64.0817ZM68.9503 42.633H69.7116C69.7748 42.633 69.8254 42.6153 69.8634 42.5775C69.9013 42.5397 69.9342 42.4994 69.9671 42.4565L71.0976 40.808C71.1431 40.7349 71.176 40.6517 71.1988 40.561L72.4204 42.4565C72.4456 42.5019 72.4785 42.5422 72.519 42.5775C72.5595 42.6128 72.6126 42.633 72.6834 42.633H73.5028L71.8032 40.1072L73.4371 37.7957H72.6505C72.6025 37.7957 72.562 37.8108 72.5316 37.8361C72.4988 37.8638 72.4684 37.8991 72.4355 37.9444L71.391 39.472C71.3353 39.5627 71.2949 39.651 71.2671 39.7392L70.0783 37.9243C70.053 37.8839 70.0227 37.8512 69.9923 37.8285C69.9595 37.8058 69.9089 37.7957 69.8381 37.7957H69.0186L70.6525 40.1551L68.9529 42.633H68.9503ZM77.5925 38.3503C77.3902 38.1511 77.16 37.9949 76.897 37.8839C76.634 37.773 76.3355 37.7201 75.9966 37.7201C75.6299 37.7201 75.3036 37.7831 75.0203 37.9066C74.7371 38.0302 74.4968 38.2041 74.3046 38.4234C74.1124 38.6452 73.9631 38.9074 73.8645 39.2149C73.7659 39.5199 73.7153 39.8526 73.7153 40.2131C73.7153 40.6088 73.7709 40.9592 73.8797 41.2693C73.9884 41.5768 74.1402 41.839 74.3324 42.0507C74.5246 42.2624 74.7497 42.4238 75.0102 42.5347C75.2707 42.6456 75.5515 42.701 75.855 42.701C76.2065 42.701 76.5404 42.6406 76.8565 42.5221C77.1727 42.4036 77.4357 42.2146 77.6456 41.9574L77.4054 41.6474C77.3699 41.5919 77.3143 41.5667 77.2435 41.5667C77.1853 41.5667 77.1272 41.5919 77.0715 41.6398C77.0133 41.6877 76.94 41.7432 76.8515 41.8037C76.7629 41.8642 76.6491 41.9196 76.5151 41.9675C76.381 42.0179 76.2116 42.0406 76.0017 42.0406C75.7917 42.0406 75.5894 42.0003 75.4149 41.9196C75.2404 41.839 75.0937 41.7205 74.9723 41.5667C74.8509 41.413 74.7573 41.2214 74.689 40.9945C74.6207 40.7677 74.5879 40.508 74.5879 40.2131C74.5879 39.9182 74.6182 39.6812 74.6814 39.4544C74.7421 39.2275 74.8357 39.0359 74.9596 38.8771C75.0836 38.7183 75.2353 38.5948 75.4174 38.5116C75.5995 38.4259 75.8095 38.3856 76.0447 38.3856C76.2242 38.3856 76.3735 38.4057 76.4974 38.4461C76.6213 38.4864 76.725 38.5293 76.811 38.5771C76.897 38.625 76.9678 38.6679 77.026 38.7082C77.0816 38.7486 77.1347 38.7687 77.1803 38.7687C77.2258 38.7687 77.2637 38.7586 77.289 38.7385C77.3143 38.7183 77.3396 38.6931 77.3649 38.6578L77.59 38.3528L77.5925 38.3503ZM80.453 37.7201C80.7439 37.7201 81.012 37.768 81.2573 37.8663C81.5051 37.9646 81.7151 38.1032 81.8946 38.2873C82.0742 38.4713 82.2133 38.6956 82.3145 38.9653C82.4156 39.2351 82.4662 39.5401 82.4662 39.8854C82.4662 40.019 82.4511 40.1072 82.4232 40.1526C82.3954 40.198 82.3398 40.2207 82.2614 40.2207H79.0316C79.0367 40.5257 79.0797 40.7903 79.1555 41.0172C79.234 41.2416 79.3376 41.4306 79.4717 41.5818C79.6057 41.7331 79.7651 41.8465 79.9497 41.9221C80.1343 41.9978 80.3443 42.0356 80.5744 42.0356C80.7869 42.0356 80.9715 42.0104 81.1283 41.9625C81.2826 41.9121 81.4166 41.8591 81.5279 41.8012C81.6392 41.7432 81.7328 41.6902 81.8086 41.6398C81.8845 41.5919 81.9478 41.5667 82.0034 41.5667C82.0742 41.5667 82.1273 41.5945 82.1653 41.6474L82.4055 41.9574C82.2993 42.086 82.1729 42.1944 82.0262 42.2902C81.8795 42.3834 81.7227 42.4616 81.5557 42.5221C81.3863 42.5826 81.2143 42.6279 81.0347 42.6582C80.8552 42.6884 80.6781 42.7036 80.5036 42.7036C80.1672 42.7036 79.8587 42.6481 79.5754 42.5347C79.2921 42.4212 79.0493 42.2574 78.8419 42.0381C78.6345 41.8188 78.4752 41.5491 78.3614 41.2289C78.245 40.9063 78.1894 40.5383 78.1894 40.1223C78.1894 39.7846 78.2425 39.4695 78.3437 39.1771C78.4474 38.8847 78.5966 38.6301 78.7913 38.4158C78.9861 38.2016 79.2238 38.0327 79.5046 37.9092C79.7853 37.7856 80.1015 37.7251 80.453 37.7251M80.4707 38.3452C80.0585 38.3452 79.7347 38.4637 79.4995 38.7007C79.2643 38.9376 79.1151 39.2653 79.0594 39.6863H81.6999C81.6999 39.4896 81.6721 39.3082 81.619 39.1443C81.5658 38.9805 81.4849 38.8393 81.3812 38.7183C81.275 38.5998 81.146 38.5066 80.9943 38.441C80.8425 38.3755 80.668 38.3427 80.4732 38.3427M84.4997 35.6002H83.6474V42.633H84.4997V35.6002ZM87.9267 37.7201C88.2176 37.7201 88.4857 37.768 88.731 37.8663C88.9763 37.9646 89.1888 38.1032 89.3684 38.2873C89.5479 38.4713 89.687 38.6956 89.7882 38.9653C89.8894 39.2351 89.9399 39.5401 89.9399 39.8854C89.9399 40.019 89.9248 40.1072 89.8969 40.1526C89.8691 40.198 89.8135 40.2207 89.7351 40.2207H86.5053C86.5104 40.5257 86.5534 40.7903 86.6293 41.0172C86.7077 41.2416 86.8114 41.4306 86.9454 41.5818C87.0794 41.7331 87.2388 41.8465 87.4234 41.9221C87.608 41.9978 87.818 42.0356 88.0481 42.0356C88.2606 42.0356 88.4452 42.0104 88.602 41.9625C88.7563 41.9121 88.8903 41.8591 89.0016 41.8012C89.1129 41.7432 89.2065 41.6902 89.2824 41.6398C89.3582 41.5919 89.4215 41.5667 89.4746 41.5667C89.5454 41.5667 89.5985 41.5945 89.639 41.6474L89.8792 41.9574C89.773 42.086 89.6466 42.1944 89.4999 42.2902C89.3532 42.3834 89.1938 42.4616 89.0269 42.5221C88.8575 42.5826 88.6855 42.6279 88.5059 42.6582C88.3289 42.6884 88.1493 42.7036 87.9748 42.7036C87.6384 42.7036 87.3298 42.6481 87.0466 42.5347C86.7633 42.4212 86.5205 42.2574 86.3131 42.0381C86.1057 41.8188 85.9464 41.5491 85.8326 41.2289C85.7162 40.9063 85.6606 40.5383 85.6606 40.1223C85.6606 39.7846 85.7137 39.4695 85.8174 39.1771C85.9211 38.8847 86.0703 38.6301 86.2651 38.4158C86.4598 38.2016 86.6975 38.0327 86.9783 37.9092C87.259 37.7856 87.5752 37.7251 87.9267 37.7251M87.9444 38.3452C87.5322 38.3452 87.2084 38.4637 86.9732 38.7007C86.738 38.9376 86.5888 39.2653 86.5332 39.6863H89.1736C89.1736 39.4896 89.1458 39.3082 89.0927 39.1443C89.0396 38.9805 88.9586 38.8393 88.8524 38.7183C88.7462 38.5998 88.6197 38.5066 88.468 38.441C88.3162 38.3755 88.1417 38.3427 87.947 38.3427M91.8798 42.633V39.0712C92.0645 38.8645 92.2668 38.7007 92.4868 38.5797C92.7043 38.4587 92.9421 38.3982 93.1925 38.3982C93.539 38.3982 93.7944 38.499 93.9613 38.7007C94.1283 38.9023 94.2117 39.1872 94.2117 39.5527V42.633H95.0641V39.5527C95.0641 39.2779 95.0286 39.0284 94.9578 38.804C94.887 38.5771 94.7858 38.3856 94.6493 38.2242C94.5127 38.0629 94.3432 37.9394 94.1409 37.8512C93.9386 37.763 93.7034 37.7201 93.4403 37.7201C93.0989 37.7201 92.7979 37.7932 92.5374 37.9344C92.2769 38.078 92.0417 38.2646 91.8292 38.499L91.7635 37.9747C91.7306 37.8562 91.6547 37.7982 91.5333 37.7982H91.025V42.6355H91.8773L91.8798 42.633ZM99.8897 38.3503C99.6874 38.1511 99.4572 37.9949 99.1942 37.8839C98.9312 37.773 98.6327 37.7201 98.2938 37.7201C97.9271 37.7201 97.6008 37.7831 97.3175 37.9066C97.0343 38.0302 96.794 38.2041 96.6018 38.4234C96.4096 38.6452 96.2603 38.9074 96.1617 39.2149C96.0605 39.5199 96.01 39.8526 96.01 40.2131C96.01 40.6088 96.0656 40.9592 96.1744 41.2693C96.2831 41.5768 96.4349 41.839 96.6271 42.0507C96.8193 42.2624 97.0444 42.4238 97.3049 42.5347C97.5654 42.6456 97.8461 42.701 98.1496 42.701C98.5012 42.701 98.8351 42.6406 99.1512 42.5221C99.4673 42.4036 99.7304 42.2146 99.9403 41.9574L99.7 41.6474C99.6646 41.5919 99.609 41.5667 99.5382 41.5667C99.48 41.5667 99.4218 41.5919 99.3662 41.6398C99.308 41.6877 99.2347 41.7432 99.1461 41.8037C99.0576 41.8642 98.9438 41.9196 98.8098 41.9675C98.6757 42.0179 98.5063 42.0406 98.2963 42.0406C98.0864 42.0406 97.8841 42.0003 97.7096 41.9196C97.5351 41.839 97.3884 41.7205 97.267 41.5667C97.1456 41.413 97.052 41.2214 96.9837 40.9945C96.9154 40.7677 96.8825 40.508 96.8825 40.2131C96.8825 39.9182 96.9129 39.6812 96.9761 39.4544C97.0368 39.2275 97.1304 39.0359 97.2543 38.8771C97.3782 38.7183 97.53 38.5948 97.7121 38.5116C97.8942 38.4259 98.1041 38.3856 98.3393 38.3856C98.5189 38.3856 98.6681 38.4057 98.7921 38.4461C98.916 38.4864 99.0197 38.5293 99.1057 38.5771C99.1917 38.625 99.2625 38.6679 99.3207 38.7082C99.3763 38.7486 99.4294 38.7687 99.4749 38.7687C99.5205 38.7687 99.5584 38.7586 99.5837 38.7385C99.609 38.7183 99.6343 38.6931 99.6596 38.6578L99.8847 38.3528L99.8897 38.3503ZM101.969 36.2782C101.969 36.3614 101.951 36.437 101.918 36.5102C101.885 36.5807 101.84 36.6463 101.784 36.7017C101.728 36.7572 101.663 36.8 101.589 36.8328C101.516 36.8656 101.438 36.8807 101.354 36.8807C101.271 36.8807 101.192 36.8631 101.121 36.8328C101.051 36.8 100.985 36.7572 100.929 36.7017C100.874 36.6463 100.831 36.5833 100.798 36.5102C100.765 36.437 100.75 36.3614 100.75 36.2782C100.75 36.1951 100.765 36.1169 100.798 36.0413C100.828 35.9657 100.874 35.9001 100.929 35.8447C100.985 35.7892 101.051 35.7464 101.121 35.7136C101.192 35.6808 101.271 35.6657 101.354 35.6657C101.438 35.6657 101.516 35.6808 101.589 35.7136C101.663 35.7464 101.728 35.7892 101.784 35.8447C101.84 35.9001 101.885 35.9657 101.918 36.0413C101.951 36.1144 101.969 36.1951 101.969 36.2782ZM101.776 42.633H100.924V37.7957H101.776V42.633ZM106.845 42.633H106.466C106.382 42.633 106.316 42.6204 106.263 42.5952C106.213 42.57 106.177 42.5145 106.162 42.4339L106.066 41.9852C105.937 42.1011 105.813 42.2019 105.692 42.2927C105.57 42.3834 105.441 42.4591 105.307 42.5221C105.173 42.5851 105.032 42.6305 104.88 42.6632C104.728 42.6935 104.559 42.7111 104.374 42.7111C104.189 42.7111 104.01 42.6859 103.845 42.633C103.681 42.5801 103.537 42.5019 103.415 42.396C103.294 42.2902 103.198 42.1566 103.125 41.9952C103.054 41.8339 103.016 41.6423 103.016 41.423C103.016 41.2315 103.069 41.0475 103.175 40.871C103.281 40.6946 103.451 40.5357 103.686 40.3996C103.921 40.261 104.227 40.1501 104.609 40.0619C104.989 39.9736 105.454 39.9308 106.003 39.9308V39.5527C106.003 39.1746 105.922 38.8897 105.76 38.6956C105.598 38.5015 105.36 38.4057 105.044 38.4057C104.837 38.4057 104.662 38.4309 104.521 38.4839C104.379 38.5368 104.255 38.5948 104.151 38.6603C104.048 38.7259 103.959 38.7838 103.883 38.8368C103.807 38.8897 103.734 38.9149 103.661 38.9149C103.603 38.9149 103.552 38.8998 103.509 38.8695C103.466 38.8393 103.431 38.8015 103.405 38.7561L103.251 38.4839C103.519 38.2268 103.807 38.0327 104.118 37.9066C104.427 37.7806 104.771 37.7151 105.148 37.7151C105.418 37.7151 105.659 37.7604 105.871 37.8487C106.081 37.9369 106.258 38.0629 106.402 38.2217C106.547 38.3805 106.655 38.5746 106.729 38.799C106.802 39.0258 106.837 39.2729 106.837 39.5451V42.638L106.845 42.633ZM104.632 42.1137C104.781 42.1137 104.92 42.0986 105.044 42.0683C105.168 42.0381 105.287 41.9952 105.396 41.9398C105.507 41.8843 105.611 41.8163 105.712 41.7356C105.813 41.6575 105.912 41.5667 106.008 41.4634V40.4652C105.616 40.4652 105.282 40.4904 105.006 40.5408C104.731 40.5912 104.508 40.6542 104.336 40.7349C104.164 40.8155 104.038 40.9088 103.959 41.0172C103.881 41.1256 103.84 41.2491 103.84 41.3827C103.84 41.5163 103.861 41.6222 103.904 41.7129C103.944 41.8062 104.002 41.8818 104.07 41.9423C104.139 42.0028 104.225 42.0431 104.318 42.0709C104.414 42.0986 104.518 42.1112 104.629 42.1112M110.841 42.633V39.0284C110.99 38.8343 111.157 38.6805 111.337 38.5671C111.516 38.4536 111.714 38.3982 111.924 38.3982C112.224 38.3982 112.452 38.494 112.609 38.683C112.766 38.8746 112.844 39.1645 112.844 39.5527V42.633H113.696V39.5527C113.696 39.3611 113.724 39.1947 113.78 39.0485C113.836 38.9023 113.911 38.7838 114.008 38.6881C114.104 38.5923 114.215 38.5217 114.341 38.4713C114.468 38.4209 114.599 38.3982 114.741 38.3982C115.057 38.3982 115.297 38.4965 115.464 38.6906C115.631 38.8872 115.715 39.1746 115.715 39.5527V42.633H116.567V39.5527C116.567 39.2603 116.529 39.0006 116.458 38.7712C116.385 38.5444 116.279 38.3528 116.14 38.1965C116.001 38.0402 115.831 37.9218 115.631 37.8411C115.431 37.7604 115.204 37.7176 114.948 37.7176C114.789 37.7176 114.632 37.7377 114.475 37.7756C114.321 37.8134 114.174 37.8739 114.038 37.957C113.901 38.0402 113.777 38.1461 113.666 38.2721C113.557 38.4007 113.466 38.5519 113.401 38.7259C113.312 38.4158 113.165 38.1713 112.963 37.9898C112.761 37.8083 112.495 37.7176 112.166 37.7176C111.873 37.7176 111.615 37.7882 111.392 37.9268C111.17 38.068 110.97 38.2469 110.79 38.4662L110.727 37.9697C110.694 37.8512 110.621 37.7932 110.497 37.7932H109.989V42.6305H110.841V42.633ZM119.774 37.7201C120.065 37.7201 120.333 37.768 120.578 37.8663C120.824 37.9621 121.036 38.1032 121.216 38.2873C121.395 38.4713 121.534 38.6956 121.636 38.9653C121.737 39.2351 121.787 39.5401 121.787 39.8854C121.787 40.019 121.772 40.1072 121.744 40.1526C121.716 40.198 121.661 40.2207 121.582 40.2207H118.353C118.358 40.5257 118.401 40.7929 118.477 41.0172C118.552 41.2441 118.659 41.4331 118.793 41.5818C118.927 41.7331 119.086 41.8465 119.271 41.9221C119.455 41.9978 119.663 42.0356 119.895 42.0356C120.108 42.0356 120.293 42.0104 120.447 41.9625C120.601 41.9121 120.735 41.8591 120.849 41.8012C120.96 41.7432 121.054 41.6902 121.13 41.6398C121.206 41.5919 121.269 41.5667 121.322 41.5667C121.393 41.5667 121.446 41.5945 121.484 41.6474L121.724 41.9574C121.618 42.0835 121.494 42.1969 121.345 42.2876C121.198 42.3809 121.041 42.4591 120.874 42.5196C120.705 42.5801 120.533 42.6254 120.353 42.6557C120.174 42.6859 119.997 42.701 119.822 42.701C119.486 42.701 119.177 42.6456 118.896 42.5322C118.613 42.4187 118.37 42.2524 118.163 42.0356C117.956 41.8188 117.796 41.5466 117.682 41.2264C117.569 40.9038 117.51 40.5357 117.51 40.1198C117.51 39.7821 117.564 39.467 117.665 39.1746C117.768 38.8822 117.918 38.6276 118.112 38.4133C118.307 38.199 118.545 38.0302 118.826 37.9066C119.106 37.7831 119.423 37.7226 119.774 37.7226M119.794 38.3452C119.382 38.3452 119.058 38.4637 118.821 38.7007C118.585 38.9376 118.436 39.2653 118.381 39.6863H121.021C121.021 39.4896 120.993 39.3082 120.94 39.1443C120.884 38.9805 120.806 38.8393 120.7 38.7183C120.594 38.5998 120.465 38.5066 120.315 38.441C120.164 38.3755 119.989 38.3427 119.794 38.3427M121.183 35.7161L120.067 36.9488C120.022 36.9967 119.979 37.0319 119.936 37.0521C119.893 37.0748 119.837 37.0824 119.772 37.0824H119.263L119.971 35.9279C120.017 35.8548 120.065 35.8018 120.118 35.7691C120.171 35.7363 120.247 35.7186 120.351 35.7186H121.185L121.183 35.7161ZM126.292 42.633C126.17 42.633 126.094 42.575 126.062 42.4565L125.986 41.8692C125.778 42.1213 125.541 42.3229 125.275 42.4742C125.009 42.6254 124.703 42.701 124.357 42.701C124.079 42.701 123.826 42.6481 123.601 42.5422C123.376 42.4364 123.181 42.2801 123.022 42.0709C122.862 41.8642 122.738 41.6071 122.652 41.297C122.566 40.9895 122.523 40.6341 122.523 40.2333C122.523 39.8753 122.571 39.5451 122.667 39.2376C122.764 38.93 122.9 38.6629 123.082 38.4385C123.264 38.2116 123.484 38.0352 123.742 37.9066C124 37.7781 124.294 37.7125 124.623 37.7125C124.918 37.7125 125.174 37.763 125.384 37.8638C125.594 37.9646 125.783 38.1032 125.948 38.2873V35.6027H126.8V42.6355H126.292V42.633ZM124.638 42.0129C124.916 42.0129 125.159 41.9499 125.369 41.8213C125.579 41.6953 125.771 41.5138 125.945 41.2819V38.9427C125.788 38.7334 125.619 38.5847 125.432 38.5015C125.245 38.4158 125.037 38.3755 124.812 38.3755C124.359 38.3755 124.01 38.5368 123.768 38.8595C123.525 39.1796 123.403 39.6384 123.403 40.2333C123.403 40.5484 123.431 40.8181 123.484 41.0424C123.54 41.2668 123.618 41.4508 123.725 41.597C123.831 41.7432 123.96 41.8465 124.112 41.9146C124.266 41.9826 124.44 42.0154 124.638 42.0154M129.37 36.2782C129.37 36.3614 129.352 36.437 129.319 36.5102C129.286 36.5807 129.241 36.6463 129.185 36.7017C129.13 36.7572 129.064 36.8 128.99 36.8328C128.917 36.8656 128.839 36.8807 128.755 36.8807C128.672 36.8807 128.593 36.8631 128.522 36.8328C128.452 36.8 128.386 36.7572 128.33 36.7017C128.275 36.6463 128.232 36.5833 128.199 36.5102C128.166 36.437 128.151 36.3614 128.151 36.2782C128.151 36.1951 128.166 36.1169 128.199 36.0413C128.232 35.9657 128.275 35.9001 128.33 35.8447C128.386 35.7892 128.449 35.7464 128.522 35.7136C128.593 35.6808 128.672 35.6657 128.755 35.6657C128.839 35.6657 128.917 35.6808 128.99 35.7136C129.064 35.7464 129.13 35.7892 129.185 35.8447C129.241 35.9001 129.286 35.9657 129.319 36.0413C129.352 36.1144 129.37 36.1951 129.37 36.2782ZM129.18 42.633H128.328V37.7957H129.18V42.633ZM134.221 38.3503C134.018 38.1511 133.788 37.9949 133.525 37.8839C133.265 37.773 132.964 37.7201 132.625 37.7201C132.258 37.7201 131.932 37.7831 131.649 37.9066C131.365 38.0302 131.125 38.2041 130.933 38.4234C130.741 38.6452 130.591 38.9074 130.493 39.2149C130.394 39.5199 130.344 39.8526 130.344 40.2131C130.344 40.6088 130.399 40.9592 130.508 41.2693C130.617 41.5768 130.768 41.839 130.961 42.0507C131.153 42.2624 131.378 42.4238 131.638 42.5347C131.899 42.6456 132.18 42.701 132.483 42.701C132.835 42.701 133.169 42.6406 133.485 42.5221C133.801 42.4036 134.064 42.2146 134.274 41.9574L134.034 41.6474C133.998 41.5919 133.943 41.5667 133.872 41.5667C133.814 41.5667 133.755 41.5919 133.7 41.6398C133.642 41.6877 133.568 41.7432 133.48 41.8037C133.391 41.8642 133.277 41.9196 133.143 41.9675C133.009 42.0179 132.84 42.0406 132.63 42.0406C132.42 42.0406 132.218 42.0003 132.043 41.9196C131.869 41.839 131.722 41.7205 131.601 41.5667C131.479 41.413 131.386 41.2214 131.317 40.9945C131.249 40.7677 131.216 40.508 131.216 40.2131C131.216 39.9182 131.246 39.6812 131.31 39.4544C131.37 39.2275 131.464 39.0359 131.588 38.8771C131.712 38.7183 131.864 38.5948 132.046 38.5116C132.228 38.4259 132.438 38.3856 132.673 38.3856C132.852 38.3856 133.002 38.4057 133.126 38.4461C133.25 38.4864 133.353 38.5293 133.439 38.5771C133.525 38.625 133.596 38.6679 133.654 38.7082C133.71 38.7486 133.763 38.7687 133.808 38.7687C133.854 38.7687 133.892 38.7586 133.917 38.7385C133.943 38.7183 133.968 38.6931 133.993 38.6578L134.218 38.3528L134.221 38.3503ZM138.723 42.633H138.343C138.26 42.633 138.194 42.6204 138.141 42.5952C138.09 42.57 138.055 42.5145 138.04 42.4339L137.944 41.9852C137.815 42.1011 137.691 42.2019 137.569 42.2927C137.448 42.3834 137.319 42.4591 137.185 42.5221C137.051 42.5851 136.909 42.6305 136.757 42.6632C136.606 42.6935 136.436 42.7111 136.252 42.7111C136.067 42.7111 135.887 42.6859 135.723 42.633C135.559 42.5801 135.414 42.5019 135.293 42.396C135.172 42.2902 135.076 42.1566 135.002 41.9952C134.931 41.8339 134.893 41.6423 134.893 41.423C134.893 41.2315 134.947 41.0475 135.053 40.871C135.159 40.6946 135.329 40.5357 135.564 40.3996C135.799 40.261 136.105 40.1501 136.487 40.0619C136.866 39.9736 137.332 39.9308 137.88 39.9308V39.5527C137.88 39.1746 137.8 38.8897 137.638 38.6956C137.476 38.5015 137.238 38.4057 136.922 38.4057C136.714 38.4057 136.54 38.4309 136.398 38.4839C136.257 38.5368 136.133 38.5948 136.029 38.6603C135.925 38.7259 135.837 38.7838 135.761 38.8368C135.685 38.8897 135.612 38.9149 135.538 38.9149C135.48 38.9149 135.432 38.8998 135.387 38.8695C135.344 38.8393 135.308 38.8015 135.283 38.7561L135.129 38.4839C135.397 38.2268 135.685 38.0327 135.996 37.9066C136.305 37.7806 136.649 37.7151 137.026 37.7151C137.296 37.7151 137.536 37.7604 137.749 37.8487C137.959 37.9369 138.136 38.0629 138.28 38.2217C138.424 38.3805 138.533 38.5746 138.606 38.799C138.68 39.0258 138.715 39.2729 138.715 39.5451V42.638L138.723 42.633ZM136.51 42.1137C136.659 42.1137 136.798 42.0986 136.922 42.0683C137.046 42.0381 137.165 41.9952 137.273 41.9398C137.385 41.8843 137.488 41.8163 137.59 41.7356C137.691 41.6575 137.789 41.5667 137.886 41.4634V40.4652C137.493 40.4652 137.16 40.4904 136.884 40.5408C136.608 40.5912 136.386 40.6542 136.214 40.7349C136.042 40.8155 135.915 40.9088 135.837 41.0172C135.758 41.1256 135.718 41.2491 135.718 41.3827C135.718 41.5163 135.738 41.6222 135.781 41.7129C135.822 41.8062 135.88 41.8818 135.948 41.9423C136.016 42.0028 136.102 42.0431 136.196 42.0709C136.292 42.0986 136.396 42.1112 136.507 42.1112M139.767 42.0457C139.767 42.1314 139.78 42.2095 139.808 42.2826C139.836 42.3532 139.873 42.4162 139.921 42.4691C139.972 42.5221 140.03 42.5624 140.096 42.5927C140.164 42.6204 140.238 42.6355 140.321 42.6355H140.382C140.362 42.7414 140.331 42.8397 140.288 42.9304C140.245 43.0237 140.197 43.1069 140.147 43.185C140.096 43.2607 140.045 43.3287 139.995 43.3892C139.944 43.4472 139.904 43.4951 139.873 43.5304C139.828 43.5732 139.805 43.6161 139.805 43.6589C139.805 43.7093 139.825 43.7547 139.866 43.7925L140.01 43.9312C140.154 43.8102 140.283 43.6791 140.397 43.5354C140.511 43.3917 140.604 43.243 140.683 43.0943C140.759 42.943 140.819 42.7893 140.86 42.6355C140.9 42.4817 140.921 42.333 140.921 42.1893C140.921 42.0936 140.908 42.0053 140.883 41.9247C140.857 41.844 140.819 41.7734 140.769 41.7104C140.721 41.6474 140.657 41.5995 140.582 41.5642C140.506 41.5289 140.422 41.5113 140.326 41.5113C140.243 41.5113 140.167 41.5264 140.096 41.5541C140.025 41.5844 139.964 41.6222 139.916 41.6701C139.866 41.7205 139.828 41.7759 139.803 41.8415C139.775 41.907 139.762 41.9751 139.762 42.0482M147.431 38.3503C147.231 38.1511 146.998 37.9949 146.738 37.8839C146.475 37.773 146.176 37.7201 145.837 37.7201C145.47 37.7201 145.144 37.7831 144.861 37.9066C144.578 38.0302 144.337 38.2041 144.145 38.4234C143.953 38.6452 143.804 38.9074 143.705 39.2149C143.606 39.5199 143.556 39.8526 143.556 40.2131C143.556 40.6088 143.612 40.9592 143.72 41.2693C143.829 41.5768 143.981 41.839 144.173 42.0507C144.365 42.2624 144.59 42.4238 144.851 42.5347C145.111 42.6456 145.392 42.701 145.696 42.701C146.047 42.701 146.381 42.6406 146.697 42.5221C147.013 42.4036 147.276 42.2146 147.486 41.9574L147.246 41.6474C147.211 41.5919 147.155 41.5667 147.084 41.5667C147.026 41.5667 146.968 41.5919 146.912 41.6398C146.854 41.6877 146.781 41.7432 146.692 41.8037C146.604 41.8642 146.49 41.9196 146.356 41.9675C146.222 42.0179 146.052 42.0406 145.842 42.0406C145.632 42.0406 145.43 42.0003 145.256 41.9196C145.081 41.839 144.934 41.7205 144.813 41.5667C144.692 41.413 144.598 41.2214 144.53 40.9945C144.461 40.7677 144.428 40.508 144.428 40.2131C144.428 39.9182 144.459 39.6812 144.522 39.4544C144.583 39.2275 144.676 39.0359 144.8 38.8771C144.924 38.7183 145.076 38.5948 145.258 38.5116C145.44 38.4259 145.65 38.3856 145.885 38.3856C146.065 38.3856 146.214 38.4057 146.338 38.4461C146.462 38.4864 146.566 38.5293 146.652 38.5771C146.738 38.625 146.808 38.6679 146.864 38.7082C146.92 38.7486 146.973 38.7687 147.021 38.7687C147.069 38.7687 147.104 38.7586 147.13 38.7385C147.155 38.7183 147.18 38.6931 147.206 38.6578L147.431 38.3528V38.3503ZM151.935 42.633H151.556C151.472 42.633 151.404 42.6204 151.353 42.5952C151.303 42.57 151.267 42.5145 151.252 42.4339L151.156 41.9852C151.027 42.1011 150.903 42.2019 150.782 42.2927C150.66 42.3834 150.531 42.4591 150.397 42.5221C150.263 42.5851 150.122 42.6305 149.967 42.6632C149.816 42.6935 149.646 42.7111 149.462 42.7111C149.277 42.7111 149.097 42.6859 148.933 42.633C148.769 42.5801 148.624 42.5019 148.506 42.396C148.384 42.2902 148.288 42.1566 148.215 41.9952C148.144 41.8339 148.106 41.6423 148.106 41.423C148.106 41.2315 148.159 41.0475 148.265 40.871C148.371 40.6946 148.541 40.5357 148.776 40.3996C149.011 40.261 149.317 40.1501 149.699 40.0619C150.079 39.9736 150.544 39.9308 151.093 39.9308V39.5527C151.093 39.1746 151.012 38.8897 150.85 38.6956C150.688 38.5015 150.45 38.4057 150.134 38.4057C149.927 38.4057 149.752 38.4309 149.608 38.4839C149.467 38.5368 149.343 38.5948 149.239 38.6603C149.135 38.7259 149.044 38.7838 148.971 38.8368C148.895 38.8897 148.822 38.9149 148.748 38.9149C148.69 38.9149 148.642 38.8998 148.597 38.8695C148.554 38.8393 148.518 38.8015 148.493 38.7561L148.339 38.4839C148.607 38.2268 148.895 38.0327 149.206 37.9066C149.515 37.7806 149.859 37.7151 150.235 37.7151C150.506 37.7151 150.746 37.7604 150.959 37.8487C151.169 37.9369 151.346 38.0629 151.49 38.2217C151.634 38.3805 151.743 38.5746 151.816 38.799C151.89 39.0258 151.925 39.2729 151.925 39.5451V42.638L151.935 42.633ZM149.722 42.1137C149.871 42.1137 150.01 42.0986 150.134 42.0683C150.258 42.0381 150.377 41.9952 150.486 41.9398C150.597 41.8843 150.701 41.8163 150.802 41.7356C150.903 41.6575 151.002 41.5667 151.098 41.4634V40.4652C150.706 40.4652 150.372 40.4904 150.096 40.5408C149.821 40.5912 149.598 40.6542 149.426 40.7349C149.254 40.8155 149.128 40.9088 149.049 41.0172C148.971 41.1256 148.93 41.2491 148.93 41.3827C148.93 41.5163 148.951 41.6222 148.991 41.7129C149.032 41.8062 149.09 41.8818 149.161 41.9423C149.231 42.0028 149.315 42.0431 149.408 42.0709C149.505 42.0986 149.608 42.1112 149.72 42.1112M154.176 35.6002H153.324V42.633H154.176V35.6002ZM156.821 36.2782C156.821 36.3614 156.804 36.437 156.771 36.5102C156.738 36.5807 156.692 36.6463 156.637 36.7017C156.581 36.7572 156.515 36.8 156.442 36.8328C156.369 36.8656 156.29 36.8807 156.207 36.8807C156.123 36.8807 156.045 36.8631 155.974 36.8328C155.903 36.8 155.838 36.7572 155.782 36.7017C155.726 36.6463 155.683 36.5833 155.65 36.5102C155.618 36.437 155.602 36.3614 155.602 36.2782C155.602 36.1951 155.618 36.1169 155.65 36.0413C155.683 35.9657 155.726 35.9001 155.782 35.8447C155.838 35.7892 155.901 35.7464 155.974 35.7136C156.045 35.6808 156.123 35.6657 156.207 35.6657C156.29 35.6657 156.369 35.6808 156.442 35.7136C156.515 35.7464 156.581 35.7892 156.637 35.8447C156.692 35.9001 156.738 35.9657 156.771 36.0413C156.804 36.1144 156.821 36.1951 156.821 36.2782ZM156.629 42.633H155.777V37.7957H156.629V42.633ZM161.551 42.633C161.43 42.633 161.354 42.575 161.321 42.4565L161.242 41.8692C161.035 42.1213 160.797 42.3229 160.532 42.4742C160.266 42.6254 159.96 42.701 159.614 42.701C159.335 42.701 159.083 42.6481 158.857 42.5422C158.632 42.4364 158.438 42.2801 158.278 42.0709C158.119 41.8642 157.995 41.6071 157.909 41.297C157.823 40.9895 157.78 40.6341 157.78 40.2333C157.78 39.8753 157.828 39.5451 157.924 39.2376C158.02 38.93 158.157 38.6629 158.339 38.4385C158.519 38.2116 158.741 38.0352 158.999 37.9066C159.257 37.7781 159.55 37.7125 159.879 37.7125C160.175 37.7125 160.431 37.763 160.64 37.8638C160.85 37.9646 161.04 38.1032 161.204 38.2873V35.6027H162.057V42.6355H161.548L161.551 42.633ZM159.897 42.0129C160.175 42.0129 160.418 41.9499 160.628 41.8213C160.838 41.6953 161.03 41.5138 161.204 41.2819V38.9427C161.048 38.7334 160.878 38.5847 160.691 38.5015C160.504 38.4158 160.297 38.3755 160.071 38.3755C159.619 38.3755 159.27 38.5368 159.027 38.8595C158.784 39.1796 158.663 39.6384 158.663 40.2333C158.663 40.5484 158.69 40.8181 158.744 41.0424C158.797 41.2668 158.878 41.4508 158.984 41.597C159.09 41.7432 159.219 41.8465 159.371 41.9146C159.525 41.9826 159.7 42.0154 159.897 42.0154M165.411 37.7201C165.701 37.7201 165.969 37.768 166.215 37.8663C166.46 37.9646 166.673 38.1032 166.852 38.2873C167.032 38.4713 167.171 38.6956 167.272 38.9653C167.373 39.2351 167.424 39.5401 167.424 39.8854C167.424 40.019 167.409 40.1072 167.381 40.1526C167.353 40.198 167.297 40.2207 167.219 40.2207H163.989C163.994 40.5257 164.037 40.7903 164.113 41.0172C164.191 41.2416 164.295 41.4306 164.429 41.5818C164.563 41.7331 164.723 41.8465 164.907 41.9221C165.092 41.9978 165.302 42.0356 165.532 42.0356C165.744 42.0356 165.929 42.0104 166.086 41.9625C166.24 41.9121 166.374 41.8591 166.485 41.8012C166.597 41.7432 166.69 41.6902 166.766 41.6398C166.842 41.5919 166.905 41.5667 166.961 41.5667C167.032 41.5667 167.085 41.5945 167.123 41.6474L167.363 41.9574C167.257 42.086 167.13 42.1944 166.984 42.2902C166.837 42.3834 166.68 42.4616 166.513 42.5221C166.344 42.5826 166.172 42.6279 165.992 42.6582C165.815 42.6884 165.636 42.7036 165.461 42.7036C165.125 42.7036 164.816 42.6481 164.533 42.5347C164.25 42.4212 164.007 42.2574 163.799 42.0381C163.592 41.8188 163.433 41.5491 163.319 41.2289C163.203 40.9063 163.147 40.5383 163.147 40.1223C163.147 39.7846 163.2 39.4695 163.301 39.1771C163.405 38.8847 163.554 38.6301 163.749 38.4158C163.944 38.2016 164.181 38.0327 164.462 37.9092C164.743 37.7856 165.059 37.7251 165.411 37.7251M165.431 38.3452C165.018 38.3452 164.695 38.4637 164.46 38.7007C164.224 38.9376 164.075 39.2653 164.019 39.6863H166.66C166.66 39.4896 166.632 39.3082 166.579 39.1443C166.526 38.9805 166.445 38.8393 166.339 38.7183C166.232 38.5998 166.103 38.5066 165.954 38.441C165.803 38.3755 165.628 38.3427 165.433 38.3427M171.898 37.7957H168.294V38.4637H170.904L168.263 41.9726C168.225 42.023 168.195 42.0759 168.175 42.1339C168.152 42.1893 168.142 42.2372 168.142 42.2801V42.633H171.797V41.97H169.146L171.771 38.4839C171.807 38.441 171.835 38.3906 171.857 38.3352C171.878 38.2797 171.89 38.2217 171.89 38.1612V37.7982L171.898 37.7957ZM175.638 42.633V39.0712C175.823 38.8645 176.025 38.7007 176.245 38.5797C176.463 38.4587 176.701 38.3982 176.951 38.3982C177.298 38.3982 177.553 38.499 177.72 38.7007C177.887 38.9023 177.97 39.1872 177.97 39.5527V42.633H178.823V39.5527C178.823 39.2779 178.787 39.0284 178.716 38.804C178.646 38.5771 178.545 38.3856 178.408 38.2242C178.271 38.0629 178.102 37.9394 177.9 37.8512C177.697 37.763 177.462 37.7201 177.199 37.7201C176.87 37.7201 176.579 37.7856 176.326 37.9192C176.074 38.0503 175.843 38.2268 175.636 38.4486V35.6027H174.784V42.6355H175.636L175.638 42.633ZM179.999 37.7957V40.8786C179.999 41.1533 180.032 41.4029 180.102 41.6297C180.171 41.8541 180.274 42.0482 180.411 42.207C180.548 42.3658 180.72 42.4893 180.922 42.575C181.124 42.6632 181.359 42.7061 181.623 42.7061C181.961 42.7061 182.262 42.6355 182.523 42.4918C182.783 42.3507 183.021 42.1641 183.231 41.9322L183.299 42.4515C183.332 42.57 183.408 42.6279 183.53 42.6279H184.038V37.7907H183.186V41.3575C183.001 41.5667 182.799 41.7306 182.579 41.849C182.359 41.9675 182.123 42.0255 181.873 42.0255C181.531 42.0255 181.276 41.9247 181.107 41.7255C180.937 41.5239 180.854 41.2416 180.854 40.876V37.7932H180.001L179.999 37.7957ZM186.294 42.633V39.0284C186.443 38.8343 186.61 38.6805 186.79 38.5671C186.969 38.4536 187.166 38.3982 187.376 38.3982C187.677 38.3982 187.905 38.494 188.062 38.683C188.219 38.8746 188.297 39.1645 188.297 39.5527V42.633H189.149V39.5527C189.149 39.3611 189.177 39.1947 189.233 39.0485C189.288 38.9023 189.364 38.7838 189.46 38.6881C189.557 38.5923 189.668 38.5217 189.794 38.4713C189.921 38.4209 190.052 38.3982 190.194 38.3982C190.51 38.3982 190.75 38.4965 190.917 38.6906C191.084 38.8872 191.168 39.1746 191.168 39.5527V42.633H192.02V39.5527C192.02 39.2603 191.982 39.0006 191.911 38.7712C191.838 38.5444 191.732 38.3528 191.593 38.1965C191.453 38.0402 191.284 37.9218 191.084 37.8411C190.884 37.7604 190.657 37.7176 190.401 37.7176C190.242 37.7176 190.085 37.7377 189.928 37.7756C189.774 37.8134 189.627 37.8739 189.491 37.957C189.354 38.0402 189.23 38.1461 189.119 38.2721C189.01 38.4007 188.919 38.5519 188.853 38.7259C188.765 38.4158 188.618 38.1713 188.416 37.9898C188.214 37.8083 187.948 37.7176 187.619 37.7176C187.326 37.7176 187.068 37.7882 186.845 37.9268C186.623 38.068 186.423 38.2469 186.243 38.4662L186.18 37.9697C186.147 37.8512 186.074 37.7932 185.95 37.7932H185.442V42.6305H186.294V42.633ZM196.873 42.633H196.494C196.411 42.633 196.345 42.6204 196.294 42.5952C196.244 42.57 196.208 42.5145 196.193 42.4339L196.097 41.9852C195.968 42.1011 195.844 42.2019 195.723 42.2927C195.601 42.3834 195.472 42.4591 195.338 42.5221C195.204 42.5851 195.063 42.6305 194.911 42.6632C194.759 42.6935 194.59 42.7111 194.405 42.7111C194.22 42.7111 194.041 42.6859 193.876 42.633C193.712 42.5801 193.568 42.5019 193.446 42.396C193.325 42.2902 193.229 42.1566 193.156 41.9952C193.085 41.8339 193.047 41.6423 193.047 41.423C193.047 41.2315 193.1 41.0475 193.206 40.871C193.312 40.6946 193.482 40.5357 193.717 40.3996C193.952 40.261 194.258 40.1501 194.64 40.0619C195.02 39.9736 195.485 39.9308 196.034 39.9308V39.5527C196.034 39.1746 195.953 38.8897 195.791 38.6956C195.629 38.5015 195.391 38.4057 195.075 38.4057C194.868 38.4057 194.693 38.4309 194.549 38.4839C194.407 38.5368 194.284 38.5948 194.18 38.6603C194.076 38.7259 193.985 38.7838 193.912 38.8368C193.836 38.8897 193.763 38.9149 193.689 38.9149C193.631 38.9149 193.58 38.8998 193.537 38.8695C193.494 38.8393 193.459 38.8015 193.434 38.7561L193.279 38.4839C193.548 38.2268 193.836 38.0327 194.147 37.9066C194.456 37.7806 194.8 37.7151 195.176 37.7151C195.447 37.7151 195.687 37.7604 195.9 37.8487C196.11 37.9369 196.287 38.0629 196.431 38.2217C196.575 38.3805 196.684 38.5746 196.757 38.799C196.83 39.0258 196.866 39.2729 196.866 39.5451V42.638L196.873 42.633ZM194.658 42.1137C194.807 42.1137 194.946 42.0986 195.07 42.0683C195.194 42.0381 195.313 41.9952 195.422 41.9398C195.533 41.8843 195.637 41.8163 195.738 41.7356C195.839 41.6575 195.938 41.5667 196.034 41.4634V40.4652C195.642 40.4652 195.308 40.4904 195.032 40.5408C194.757 40.5912 194.534 40.6542 194.362 40.7349C194.19 40.8155 194.064 40.9088 193.985 41.0172C193.907 41.1256 193.866 41.2491 193.866 41.3827C193.866 41.5163 193.886 41.6222 193.929 41.7129C193.97 41.8062 194.028 41.8818 194.096 41.9423C194.167 42.0028 194.251 42.0431 194.344 42.0709C194.44 42.0986 194.544 42.1112 194.655 42.1112M199.018 42.633V39.0712C199.203 38.8645 199.405 38.7007 199.625 38.5797C199.843 38.4587 200.08 38.3982 200.331 38.3982C200.677 38.3982 200.933 38.499 201.1 38.7007C201.267 38.9023 201.35 39.1872 201.35 39.5527V42.633H202.202V39.5527C202.202 39.2779 202.167 39.0284 202.096 38.804C202.025 38.5771 201.924 38.3856 201.788 38.2242C201.651 38.0629 201.482 37.9394 201.279 37.8512C201.077 37.763 200.842 37.7201 200.579 37.7201C200.237 37.7201 199.936 37.7932 199.676 37.9344C199.415 38.078 199.18 38.2646 198.97 38.499L198.902 37.9747C198.871 37.8562 198.796 37.7982 198.672 37.7982H198.163V42.6355H199.016L199.018 42.633ZM207.058 42.633H206.679C206.596 42.633 206.527 42.6204 206.477 42.5952C206.426 42.57 206.391 42.5145 206.376 42.4339L206.279 41.9852C206.15 42.1011 206.027 42.2019 205.905 42.2927C205.784 42.3834 205.655 42.4591 205.521 42.5221C205.387 42.5851 205.245 42.6305 205.091 42.6632C204.939 42.6935 204.77 42.7111 204.585 42.7111C204.4 42.7111 204.221 42.6859 204.056 42.633C203.892 42.5801 203.748 42.5019 203.629 42.396C203.507 42.2902 203.411 42.1566 203.338 41.9952C203.267 41.8339 203.229 41.6423 203.229 41.423C203.229 41.2315 203.282 41.0475 203.389 40.871C203.495 40.6946 203.664 40.5357 203.899 40.3996C204.135 40.261 204.441 40.1501 204.823 40.0619C205.202 39.9736 205.667 39.9308 206.216 39.9308V39.5527C206.216 39.1746 206.135 38.8897 205.973 38.6956C205.812 38.5015 205.574 38.4057 205.258 38.4057C205.05 38.4057 204.876 38.4309 204.734 38.4839C204.592 38.5368 204.469 38.5948 204.365 38.6603C204.261 38.7259 204.17 38.7838 204.097 38.8368C204.023 38.8897 203.948 38.9149 203.874 38.9149C203.816 38.9149 203.768 38.8998 203.722 38.8695C203.679 38.8393 203.644 38.8015 203.619 38.7561L203.464 38.4839C203.733 38.2268 204.021 38.0327 204.332 37.9066C204.641 37.7806 204.984 37.7151 205.361 37.7151C205.632 37.7151 205.872 37.7604 206.085 37.8487C206.295 37.9369 206.472 38.0629 206.616 38.2217C206.76 38.3805 206.869 38.5746 206.942 38.799C207.015 39.0258 207.051 39.2729 207.051 39.5451V42.638L207.058 42.633ZM204.845 42.1137C204.995 42.1137 205.134 42.0986 205.258 42.0683C205.382 42.0381 205.5 41.9952 205.609 41.9398C205.72 41.8843 205.824 41.8163 205.925 41.7356C206.027 41.6575 206.125 41.5667 206.221 41.4634V40.4652C205.829 40.4652 205.495 40.4904 205.22 40.5408C204.944 40.5912 204.721 40.6542 204.549 40.7349C204.378 40.8155 204.251 40.9088 204.173 41.0172C204.094 41.1256 204.054 41.2491 204.054 41.3827C204.054 41.5163 204.074 41.6222 204.117 41.7129C204.157 41.8062 204.216 41.8818 204.284 41.9423C204.355 42.0028 204.438 42.0431 204.532 42.0709C204.628 42.0986 204.732 42.1112 204.843 42.1112M221.171 8.09656C222.099 8.09656 222.904 8.4419 223.579 9.12753C224.257 9.81569 224.593 10.6274 224.593 11.5676C224.593 12.5078 224.254 13.3775 223.579 14.0581C222.901 14.7387 222.079 15.079 221.111 15.079C220.142 15.079 219.297 14.7361 218.612 14.048C217.929 13.3598 217.587 12.528 217.587 11.5499C217.587 10.5719 217.931 9.7678 218.622 9.09981C219.312 8.43181 220.16 8.09656 221.169 8.09656M221.052 8.67128C220.268 8.67128 219.593 8.95865 219.021 9.53337C218.45 10.1081 218.167 10.7862 218.167 11.5676C218.167 12.349 218.452 13.0649 219.021 13.6396C219.59 14.2144 220.281 14.5017 221.09 14.5017C221.9 14.5017 222.59 14.2144 223.159 13.6396C223.731 13.0649 224.014 12.3667 224.014 11.5474C224.014 10.7282 223.726 10.0753 223.149 9.5132C222.572 8.95108 221.872 8.67128 221.05 8.67128M219.798 13.4909V9.48296H220.853C221.915 9.48296 222.446 9.84594 222.446 10.5744C222.446 11.0912 222.188 11.3937 221.669 11.4869V11.5273C221.869 11.5928 222.029 11.7592 222.147 12.0238L222.843 13.4909H221.948L221.411 12.2608C221.333 12.0768 221.24 11.9507 221.133 11.8827C221.027 11.8171 220.86 11.7844 220.635 11.7844H220.557V13.4909H219.8H219.798ZM220.554 10.1383V11.129H220.713C221.351 11.129 221.669 10.9626 221.669 10.6324C221.669 10.4333 221.594 10.3022 221.442 10.2367C221.29 10.1711 221.047 10.1383 220.716 10.1383H220.557H220.554Z" fill="#002856"/>
</g>
<defs>
<clipPath id="clip0_39_5953">
<rect width="224.596" height="52" fill="white"/>
</clipPath>
</defs>
</svg>
