<svg width="177" height="183" viewBox="0 0 177 183" fill="none" xmlns="http://www.w3.org/2000/svg">
<path d="M17.78 13C21.499 13 21.499 16 25.2181 16C28.9371 16 28.9371 13 32.6561 13C36.3751 13 36.3751 16 40.1006 16C43.8262 16 43.8197 13 47.5387 13C51.2577 13 51.2577 16 54.9832 16C58.7088 16 58.7022 13 62.4278 13C66.1533 13 66.1468 16 69.8723 16C73.5979 16 73.5913 13 77.3169 13C81.0424 13 81.0359 16 84.7614 16C88.487 16 88.4805 13 92.206 13C95.925 13 95.925 16 99.6505 16C103.376 16 103.37 13 107.095 13C110.821 13 110.814 16 114.54 16C118.259 16 118.259 13 121.984 13C125.71 13 125.703 16 129.429 16C133.154 16 133.154 13 136.873 13C140.592 13 140.592 16 144.318 16C148.043 16 148.043 13 151.769 13C155.494 13 155.494 16 159.22 16" stroke="url(#paint0_linear_39_5907)" stroke-width="2.15" stroke-miterlimit="10"/>
<path d="M64.9494 74.2768L59.1229 34H72.0416L74.6971 59.378L88.2488 34H101.807L78.4488 74.2768H64.9494Z" fill="url(#paint1_linear_39_5907)"/>
<path d="M97.1353 74.2768L105.67 34H117.323L108.788 74.2768H97.1353Z" fill="url(#paint2_linear_39_5907)"/>
<path d="M43.6595 111.234L48.2268 89.6702H63.0442L61.8371 95.3395H53.2507L52.5722 98.6329H60.1995L59.025 104.055H51.3977L49.884 111.234H43.6465H43.6595Z" fill="url(#paint3_linear_39_5907)"/>
<path d="M74.0055 111.696C72.3874 111.696 70.9259 111.449 69.6145 110.954C68.303 110.46 67.1743 109.77 66.2347 108.878C65.2952 107.986 64.5709 106.938 64.0555 105.728C63.5466 104.523 63.2921 103.202 63.2921 101.777C63.2921 100.019 63.6249 98.3856 64.2904 96.8625C64.9559 95.346 65.8759 94.0051 67.0438 92.8596C68.2182 91.7075 69.5753 90.8158 71.1217 90.1714C72.668 89.527 74.3187 89.2081 76.0804 89.2081C77.705 89.2081 79.1796 89.462 80.4975 89.9696C81.8155 90.4773 82.9443 91.1868 83.8838 92.085C84.8234 92.9898 85.5541 94.0442 86.063 95.2548C86.572 96.4655 86.8264 97.7738 86.8264 99.1797C86.8264 100.918 86.4937 102.538 85.8216 104.048C85.1561 105.558 84.2296 106.886 83.0617 108.032C81.8873 109.177 80.5302 110.075 78.9773 110.72C77.431 111.364 75.7737 111.69 74.0121 111.69L74.0055 111.696ZM74.534 105.877C75.3888 105.877 76.1652 105.715 76.8568 105.389C77.5484 105.064 78.1552 104.621 78.6641 104.048C79.173 103.476 79.5645 102.812 79.8386 102.044C80.1126 101.276 80.2496 100.462 80.2496 99.5897C80.2496 98.6525 80.0604 97.8454 79.6754 97.1619C79.297 96.4785 78.7555 95.9513 78.0573 95.5803C77.3592 95.2093 76.5371 95.027 75.5845 95.027C74.7428 95.027 73.9664 95.1897 73.2683 95.5087C72.5701 95.8341 71.9633 96.2767 71.4544 96.8495C70.9455 97.4223 70.554 98.0862 70.28 98.8412C70.006 99.6027 69.8689 100.423 69.8689 101.308C69.8689 102.245 70.0581 103.052 70.4431 103.736C70.8215 104.419 71.3631 104.947 72.0612 105.318C72.7593 105.689 73.5814 105.871 74.534 105.871V105.877Z" fill="url(#paint4_linear_39_5907)"/>
<path d="M87.9617 111.234L92.5289 89.6702H100.711C102.407 89.6702 103.862 89.9111 105.063 90.3927C106.27 90.8744 107.19 91.5643 107.836 92.4625C108.482 93.3608 108.801 94.4282 108.801 95.6714C108.801 96.7909 108.56 97.8193 108.084 98.7696C107.607 99.7134 106.942 100.527 106.1 101.204C105.258 101.881 104.286 102.382 103.184 102.694L106.824 111.228H99.6929L96.9787 103.807H95.7716L94.1992 111.228H87.9617V111.234ZM96.8221 98.9128H99.6929C100.495 98.9128 101.141 98.711 101.637 98.3075C102.133 97.9039 102.381 97.3116 102.381 96.5436C102.381 95.8341 102.133 95.3525 101.631 95.1051C101.128 94.8513 100.437 94.7276 99.5364 94.7276H97.716L96.8221 98.9193V98.9128Z" fill="url(#paint5_linear_39_5907)"/>
<path d="M121.342 111.696C119.724 111.696 118.262 111.449 116.951 110.954C115.639 110.46 114.51 109.77 113.571 108.878C112.631 107.986 111.907 106.938 111.392 105.728C110.883 104.523 110.628 103.202 110.628 101.777C110.628 100.019 110.961 98.3856 111.627 96.8625C112.292 95.346 113.212 94.0051 114.38 92.8596C115.548 91.714 116.911 90.8158 118.458 90.1714C120.004 89.527 121.655 89.2081 123.416 89.2081C125.041 89.2081 126.516 89.462 127.834 89.9696C129.152 90.4773 130.28 91.1868 131.22 92.085C132.159 92.9898 132.89 94.0442 133.399 95.2548C133.908 96.4655 134.163 97.7738 134.163 99.1797C134.163 100.918 133.83 102.538 133.158 104.048C132.492 105.558 131.566 106.886 130.398 108.032C129.223 109.177 127.866 110.075 126.313 110.72C124.767 111.364 123.11 111.69 121.348 111.69L121.342 111.696ZM121.864 105.877C122.718 105.877 123.495 105.715 124.186 105.389C124.878 105.064 125.485 104.621 125.994 104.048C126.503 103.476 126.894 102.812 127.168 102.044C127.442 101.276 127.579 100.462 127.579 99.5897C127.579 98.6525 127.39 97.8454 127.005 97.1619C126.627 96.4785 126.085 95.9513 125.387 95.5803C124.689 95.2093 123.867 95.027 122.914 95.027C122.072 95.027 121.296 95.1897 120.598 95.5087C119.9 95.8341 119.293 96.2767 118.784 96.8495C118.275 97.4223 117.884 98.0862 117.61 98.8412C117.336 99.6027 117.199 100.423 117.199 101.308C117.199 102.245 117.388 103.052 117.773 103.736C118.151 104.419 118.693 104.947 119.391 105.318C120.089 105.689 120.911 105.871 121.864 105.871V105.877Z" fill="url(#paint6_linear_39_5907)"/>
<path d="M42.8374 148.152L43.7508 143.785L49.9623 139.216C51.2607 138.259 52.4221 137.38 53.4334 136.58C54.4447 135.785 55.2407 135.004 55.8214 134.243C56.4021 133.481 56.6892 132.668 56.6892 131.796C56.6892 131.086 56.4151 130.539 55.8736 130.162C55.3321 129.784 54.5361 129.596 53.4986 129.596C52.5134 129.596 51.5478 129.778 50.6017 130.136C49.6556 130.5 48.7291 131.047 47.8287 131.796L46.5369 126.615C47.757 125.742 49.0945 125.085 50.5495 124.623C52.0045 124.167 53.4269 123.939 54.8166 123.939C56.5848 123.939 58.0854 124.219 59.3251 124.786C60.5648 125.352 61.5109 126.126 62.1568 127.122C62.8093 128.118 63.1355 129.257 63.1355 130.539C63.1355 131.926 62.7897 133.195 62.1111 134.334C61.4261 135.473 60.4735 136.593 59.2599 137.693C58.0463 138.793 56.6435 139.977 55.058 141.24L53.329 142.626H61.5435L60.356 148.146H42.8374V148.152Z" fill="url(#paint7_linear_39_5907)"/>
<path d="M74.8472 148.66C73.3074 148.66 71.9633 148.406 70.8085 147.905C69.6536 147.404 68.688 146.707 67.9116 145.816C67.1351 144.924 66.5544 143.882 66.163 142.685C65.7715 141.487 65.5757 140.198 65.5757 138.806C65.5757 136.866 65.8694 135.004 66.4566 133.228C67.0438 131.451 67.8789 129.862 68.962 128.47C70.0451 127.077 71.3239 125.97 72.805 125.157C74.2861 124.343 75.9173 123.939 77.692 123.939C79.2448 123.939 80.5954 124.193 81.7568 124.694C82.9182 125.196 83.8838 125.892 84.6537 126.784C85.4237 127.675 85.9978 128.717 86.3828 129.914C86.7677 131.112 86.9569 132.401 86.9569 133.794C86.9569 135.733 86.6633 137.595 86.0761 139.372C85.4889 141.149 84.6537 142.737 83.5707 144.13C82.4876 145.523 81.2087 146.629 79.7342 147.443C78.2596 148.256 76.6219 148.66 74.8342 148.66H74.8472ZM75.2583 142.867C76.1326 142.867 76.8894 142.581 77.5419 142.014C78.1944 141.448 78.7359 140.706 79.1731 139.795C79.6102 138.884 79.9364 137.907 80.1583 136.866C80.3801 135.825 80.491 134.822 80.491 133.859C80.491 132.967 80.3671 132.212 80.1191 131.6C79.8712 130.988 79.5058 130.52 79.036 130.201C78.5597 129.882 77.9856 129.726 77.307 129.726C76.4588 129.726 75.7085 129.999 75.0691 130.546C74.4231 131.093 73.8816 131.815 73.4379 132.713C72.9942 133.612 72.668 134.581 72.4462 135.623C72.2243 136.664 72.1134 137.693 72.1134 138.695C72.1134 139.606 72.2374 140.374 72.4788 140.986C72.7202 141.604 73.0791 142.067 73.5488 142.385C74.0186 142.704 74.5928 142.861 75.2713 142.861L75.2583 142.867Z" fill="url(#paint8_linear_39_5907)"/>
<path d="M87.394 148.152L88.3075 143.785L94.5189 139.216C95.8173 138.259 96.9787 137.38 97.99 136.58C99.0013 135.785 99.7973 135.004 100.378 134.243C100.959 133.481 101.246 132.668 101.246 131.796C101.246 131.086 100.972 130.539 100.43 130.162C99.8887 129.784 99.0927 129.596 98.0553 129.596C97.0701 129.596 96.1044 129.778 95.1583 130.136C94.2123 130.5 93.2858 131.047 92.3854 131.796L91.0935 126.615C92.3136 125.742 93.6512 125.085 95.1061 124.623C96.5611 124.167 97.9835 123.939 99.3733 123.939C101.141 123.939 102.642 124.219 103.882 124.786C105.121 125.352 106.068 126.126 106.713 127.122C107.366 128.118 107.692 129.257 107.692 130.539C107.692 131.926 107.346 133.195 106.668 134.334C105.983 135.473 105.03 136.593 103.817 137.693C102.603 138.793 101.2 139.977 99.6147 141.24L97.8856 142.626H106.1L104.913 148.146H87.394V148.152Z" fill="url(#paint9_linear_39_5907)"/>
<path d="M119.065 148.66C117.231 148.66 115.62 148.276 114.23 147.501C112.84 146.727 111.75 145.659 110.974 144.293C110.191 142.926 109.8 141.357 109.8 139.587C109.8 137.374 110.328 135.362 111.379 133.553C112.429 131.743 113.851 130.162 115.646 128.814C117.44 127.467 119.469 126.374 121.74 125.547C124.01 124.72 126.353 124.187 128.773 123.946L129.993 128.893C128.688 129.107 127.488 129.355 126.385 129.628C125.283 129.908 124.265 130.214 123.332 130.552C122.399 130.891 121.55 131.268 120.794 131.685C120.037 132.101 119.358 132.557 118.758 133.058C119.097 132.922 119.45 132.824 119.808 132.772C120.174 132.713 120.513 132.687 120.826 132.687C122.477 132.687 123.919 133.013 125.152 133.664C126.385 134.314 127.344 135.18 128.023 136.274C128.701 137.361 129.041 138.571 129.041 139.906C129.041 141.123 128.78 142.262 128.258 143.323C127.736 144.384 127.018 145.314 126.105 146.115C125.185 146.916 124.128 147.54 122.921 147.996C121.714 148.452 120.428 148.673 119.058 148.673L119.065 148.66ZM119.234 143.31C119.854 143.31 120.422 143.18 120.937 142.919C121.453 142.659 121.864 142.301 122.17 141.832C122.477 141.37 122.627 140.836 122.627 140.225C122.627 139.749 122.503 139.32 122.255 138.936C122.007 138.552 121.661 138.246 121.218 138.025C120.774 137.797 120.259 137.686 119.671 137.686C119.052 137.686 118.477 137.816 117.955 138.077C117.433 138.337 117.016 138.695 116.709 139.151C116.396 139.606 116.246 140.133 116.246 140.732C116.246 141.22 116.37 141.656 116.631 142.047C116.885 142.438 117.238 142.743 117.681 142.971C118.125 143.199 118.647 143.31 119.234 143.31Z" fill="url(#paint10_linear_39_5907)"/>
<path d="M17.7796 166.673C21.4986 166.673 21.4986 169.856 25.2177 169.856C28.9367 169.856 28.9367 166.673 32.6557 166.673C36.3748 166.673 36.3748 169.856 40.1003 169.856C43.8259 169.856 43.8194 166.673 47.5384 166.673C51.2574 166.673 51.2574 169.856 54.983 169.856C58.7086 169.856 58.702 166.673 62.4276 166.673C66.1466 166.673 66.1466 169.856 69.8722 169.856C73.5912 169.856 73.5912 166.673 77.3168 166.673C81.0424 166.673 81.0358 169.856 84.7614 169.856C88.487 169.856 88.4804 166.673 92.206 166.673C95.9315 166.673 95.925 169.856 99.6506 169.856C103.37 169.856 103.37 166.673 107.095 166.673C110.821 166.673 110.814 169.856 114.54 169.856C118.265 169.856 118.259 166.673 121.984 166.673C125.71 166.673 125.703 169.856 129.429 169.856C133.155 169.856 133.155 166.673 136.874 166.673C140.593 166.673 140.593 169.856 144.318 169.856C148.044 169.856 148.044 166.673 151.769 166.673C155.495 166.673 155.495 169.856 159.22 169.856" stroke="url(#paint11_linear_39_5907)" stroke-width="2.15" stroke-miterlimit="10"/>
<defs>
<linearGradient id="paint0_linear_39_5907" x1="17.78" y1="14.5031" x2="159.2" y2="14.5031" gradientUnits="userSpaceOnUse">
<stop stop-color="#67AC51"/>
<stop offset="0.11" stop-color="#55AC69"/>
<stop offset="0.34" stop-color="#2AAEA7"/>
<stop offset="0.54" stop-color="#00B0E4"/>
<stop offset="0.89" stop-color="#26617A"/>
<stop offset="1" stop-color="#334756"/>
</linearGradient>
<linearGradient id="paint1_linear_39_5907" x1="42.8374" y1="91.3235" x2="134.15" y2="91.3235" gradientUnits="userSpaceOnUse">
<stop stop-color="#67AC51"/>
<stop offset="0.11" stop-color="#55AC69"/>
<stop offset="0.34" stop-color="#2AAEA7"/>
<stop offset="0.54" stop-color="#00B0E4"/>
<stop offset="0.89" stop-color="#26617A"/>
<stop offset="1" stop-color="#334756"/>
</linearGradient>
<linearGradient id="paint2_linear_39_5907" x1="42.8374" y1="91.3235" x2="134.15" y2="91.3235" gradientUnits="userSpaceOnUse">
<stop stop-color="#67AC51"/>
<stop offset="0.11" stop-color="#55AC69"/>
<stop offset="0.34" stop-color="#2AAEA7"/>
<stop offset="0.54" stop-color="#00B0E4"/>
<stop offset="0.89" stop-color="#26617A"/>
<stop offset="1" stop-color="#334756"/>
</linearGradient>
<linearGradient id="paint3_linear_39_5907" x1="42.8374" y1="91.3235" x2="134.15" y2="91.3235" gradientUnits="userSpaceOnUse">
<stop stop-color="#67AC51"/>
<stop offset="0.11" stop-color="#55AC69"/>
<stop offset="0.34" stop-color="#2AAEA7"/>
<stop offset="0.54" stop-color="#00B0E4"/>
<stop offset="0.89" stop-color="#26617A"/>
<stop offset="1" stop-color="#334756"/>
</linearGradient>
<linearGradient id="paint4_linear_39_5907" x1="42.8374" y1="91.3235" x2="134.15" y2="91.3235" gradientUnits="userSpaceOnUse">
<stop stop-color="#67AC51"/>
<stop offset="0.11" stop-color="#55AC69"/>
<stop offset="0.34" stop-color="#2AAEA7"/>
<stop offset="0.54" stop-color="#00B0E4"/>
<stop offset="0.89" stop-color="#26617A"/>
<stop offset="1" stop-color="#334756"/>
</linearGradient>
<linearGradient id="paint5_linear_39_5907" x1="42.8374" y1="91.3235" x2="134.149" y2="91.3235" gradientUnits="userSpaceOnUse">
<stop stop-color="#67AC51"/>
<stop offset="0.11" stop-color="#55AC69"/>
<stop offset="0.34" stop-color="#2AAEA7"/>
<stop offset="0.54" stop-color="#00B0E4"/>
<stop offset="0.89" stop-color="#26617A"/>
<stop offset="1" stop-color="#334756"/>
</linearGradient>
<linearGradient id="paint6_linear_39_5907" x1="42.8374" y1="91.3235" x2="134.15" y2="91.3235" gradientUnits="userSpaceOnUse">
<stop stop-color="#67AC51"/>
<stop offset="0.11" stop-color="#55AC69"/>
<stop offset="0.34" stop-color="#2AAEA7"/>
<stop offset="0.54" stop-color="#00B0E4"/>
<stop offset="0.89" stop-color="#26617A"/>
<stop offset="1" stop-color="#334756"/>
</linearGradient>
<linearGradient id="paint7_linear_39_5907" x1="42.8374" y1="91.3235" x2="134.15" y2="91.3235" gradientUnits="userSpaceOnUse">
<stop stop-color="#67AC51"/>
<stop offset="0.11" stop-color="#55AC69"/>
<stop offset="0.34" stop-color="#2AAEA7"/>
<stop offset="0.54" stop-color="#00B0E4"/>
<stop offset="0.89" stop-color="#26617A"/>
<stop offset="1" stop-color="#334756"/>
</linearGradient>
<linearGradient id="paint8_linear_39_5907" x1="42.8374" y1="91.3235" x2="134.15" y2="91.3235" gradientUnits="userSpaceOnUse">
<stop stop-color="#67AC51"/>
<stop offset="0.11" stop-color="#55AC69"/>
<stop offset="0.34" stop-color="#2AAEA7"/>
<stop offset="0.54" stop-color="#00B0E4"/>
<stop offset="0.89" stop-color="#26617A"/>
<stop offset="1" stop-color="#334756"/>
</linearGradient>
<linearGradient id="paint9_linear_39_5907" x1="42.8374" y1="91.3235" x2="134.15" y2="91.3235" gradientUnits="userSpaceOnUse">
<stop stop-color="#67AC51"/>
<stop offset="0.11" stop-color="#55AC69"/>
<stop offset="0.34" stop-color="#2AAEA7"/>
<stop offset="0.54" stop-color="#00B0E4"/>
<stop offset="0.89" stop-color="#26617A"/>
<stop offset="1" stop-color="#334756"/>
</linearGradient>
<linearGradient id="paint10_linear_39_5907" x1="42.8374" y1="91.3235" x2="134.15" y2="91.3235" gradientUnits="userSpaceOnUse">
<stop stop-color="#67AC51"/>
<stop offset="0.11" stop-color="#55AC69"/>
<stop offset="0.34" stop-color="#2AAEA7"/>
<stop offset="0.54" stop-color="#00B0E4"/>
<stop offset="0.89" stop-color="#26617A"/>
<stop offset="1" stop-color="#334756"/>
</linearGradient>
<linearGradient id="paint11_linear_39_5907" x1="17.7796" y1="168.261" x2="159.201" y2="168.261" gradientUnits="userSpaceOnUse">
<stop stop-color="#67AC51"/>
<stop offset="0.11" stop-color="#55AC69"/>
<stop offset="0.34" stop-color="#2AAEA7"/>
<stop offset="0.54" stop-color="#00B0E4"/>
<stop offset="0.89" stop-color="#26617A"/>
<stop offset="1" stop-color="#334756"/>
</linearGradient>
</defs>
</svg>
